<?xml version="1.0" encoding="utf-8"?>
<!-- Generator: Adobe Illustrator 18.1.1, SVG Export Plug-In . SVG Version: 6.00 Build 0)  -->
<svg version="1.1" baseProfile="basic" id="Layer_1"
	 xmlns="http://www.w3.org/2000/svg" xmlns:xlink="http://www.w3.org/1999/xlink" x="0px" y="0px" width="161px" height="20px"
	 viewBox="0 0 161 20" xml:space="preserve">
<g>
	<path fill="#3F403F" d="M8.2,1.9V1.3h5.4v0.6c-2,0.2-1.8,0.4-1.2,2.6l2.2,9l2.2-9.6c0.3-1.4,0.4-1.8-1-1.9l-0.4,0V1.3h4.1v0.6
		c-1.4,0.2-1.5,0.4-1.9,2.2l-3.6,14.8h-0.3L10.3,5.5L7.1,18.9H6.7L2.9,3.4C2.6,2.2,2.6,2.1,1,1.9V1.3h5.5v0.6C5,2.1,5.1,2.4,5.6,4.5
		l2.1,8.5l2.2-9.1C9.5,2.2,9.3,2,8.2,1.9z"/>
	<path fill="#3F403F" d="M21.8,17.2c-0.5,0-1.1,0.9-1.3,1.3h-0.4v-5.6h0.4c1.3,3,3.3,5.3,4.8,5.3c1.3,0,1.9-1.2,1.9-2.5
		c0-2.2-1.7-3.5-3.5-4.9c-1.8-1.4-3.6-3-3.6-5.6C20.1,3,21.5,1,23.7,1c1.9,0,2.5,1.3,3.1,1.3c0.3,0,0.6-0.3,1-1h0.3v5.1h-0.4
		c-0.9-2.4-2.2-4.7-4-4.7c-1.1,0-1.8,1-1.8,2.3c0,2.1,1.8,3.4,3.5,4.8c1.8,1.4,3.6,3,3.6,5.5c0,2.6-1.3,4.5-3.5,4.5
		C23.5,18.8,22.4,17.2,21.8,17.2z"/>
	<path fill="#3F403F" d="M30,16c0-1.7,1.2-2.3,1.7-2.3c0.6,0,1.3,0.4,1.3,1.3c0,1.2-1.6,1.3-1.6,2.1c0,0.7,0.4,1.3,1.3,1.3
		c1.7,0,1.7-1.4,1.7-4V3c0-0.9-0.3-1.1-1.5-1.1h-0.4V1.3h5.9v0.6h-0.5c-0.9,0-1.2,0.2-1.2,1.1V15c0,2.5-1.8,4-3.8,4
		C31.4,19,30,18,30,16z"/>
	<path fill="#8D8D8D" d="M45.3,13.6c0-2.4,0-10.5,0-10.5c0-0.9-0.2-1.2-1.5-1.2h-0.2V1.3h6.1v0.6l-0.7,0c-1.1,0-1.4,0.3-1.4,1.2
		c0,0,0,9.2,0,10.7c0,2.2,0.6,3.8,3.2,3.8c2.3,0,3.1-1.3,3.1-3.8V4.3c0-2,0-2.4-2.1-2.4h-0.3V1.3h4.6v0.6c-1.4,0.1-1.5,0.3-1.5,2.4
		v9.5c0,2.7-1.3,4.9-4.6,4.9C47.2,18.7,45.3,17.4,45.3,13.6z"/>
	<path fill="#8D8D8D" d="M57,1.9V1.3h3.6l6.8,12.2V4.2c0-1.6-0.1-2.1-2-2.3l-0.3,0V1.3h4.8v0.6c-1.8,0.1-1.8,0.6-1.8,2.4v14.5h-0.4
		l-8-14.5v11.2c0,1.8,0,2.1,2.2,2.3v0.6h-4.7v-0.6l0.3,0c1.6-0.1,1.5-0.8,1.5-2.4V3.1C58.4,2.2,58,1.9,57,1.9z"/>
	<path fill="#8D8D8D" d="M70.8,17.9h0.4c1.4,0,1.6-0.2,1.6-1.1V3c0-0.9-0.3-1.1-1.6-1.1h-0.4V1.3h6.3v0.6h-0.5
		c-1.3,0-1.5,0.2-1.5,1.1v13.6c0,0.9,0.3,1.1,1.5,1.1h0.5v0.6h-6.3V17.9z"/>
	<path fill="#8D8D8D" d="M79.8,3.6c-0.3-1.2-0.5-1.5-1.5-1.6l-0.5,0V1.3h6.3v0.6l-0.4,0c-2.1,0.1-1.8,0.4-1.4,1.8l2.8,10.3l2.7-9.8
		c0.5-1.8,0.6-2.3-1.2-2.4l-0.5,0V1.3h4.5v0.6c-1.2,0.1-1.4,0.2-1.9,2.2l-4.1,14.8h-0.3L79.8,3.6z"/>
	<path fill="#8D8D8D" d="M95.4,16.7c0,0.9,0.1,1.2,1.5,1.1l1.6-0.1c0.5,0,2.4-2.7,3.3-5l0.4,0l-0.7,5.7H91.3v-0.6h0.2
		c1.4,0,1.6-0.2,1.6-1.4V3c0-0.9-0.3-1.1-1.6-1.1h-0.2V1.3h9.7l0.7,5.8l-0.4,0.1c-1.1-3.3-2.4-5.3-3.4-5.3c-0.7,0-1.4,0-1.4,0
		c-0.9,0-1,0.2-1,0.9v6.8l0.8,0c1.4,0,1.6-0.9,2-3.6h0.4v7.9h-0.4c-0.3-3.2-0.6-3.6-2-3.6l-0.8,0V16.7z"/>
	<path fill="#8D8D8D" d="M103.6,17.9h0.2c1.4,0,1.6-0.2,1.6-1.4V3c0-0.9-0.3-1.1-1.6-1.1h-0.2V1.3c0,0,3.8,0,6.2,0
		c2,0,4.5,1.8,4.5,4.5c0,1.9-1.4,3.4-3.7,4c2,0.7,2.4,1.7,2.6,4.4c0.2,2.9,0.5,3.3,1.3,3.3c0.9,0,1.2-1.5,1.2-2.8h0.5
		c-0.1,3.3-1.4,4.1-2.8,4.1c-1.4,0-2.4-0.5-2.5-2.1l-0.2-4.5c-0.1-1.7-0.3-2-1.5-2c-0.3,0-1,0-1.6,0v6.5c0,0.9,0.4,1.1,1.3,1.1h0.4
		v0.6h-5.8V17.9z M108.7,9.7c1.9,0,3.1-0.6,3.1-3.9c0-2.6-1.4-3.9-2.5-3.9c-0.5,0-0.6,0-0.6,0c-0.8,0-1,0.3-1,0.8v7
		C107.9,9.7,108.3,9.7,108.7,9.7z"/>
	<path fill="#8D8D8D" d="M119,17.2c-0.5,0-1.1,0.9-1.3,1.3h-0.4v-5.6h0.4c1.3,3,3.3,5.3,4.8,5.3c1.3,0,1.9-1.2,1.9-2.5
		c0-2.2-1.7-3.5-3.5-4.9c-1.8-1.4-3.6-3-3.6-5.6c0-2.1,1.4-4.2,3.6-4.2c1.9,0,2.5,1.3,3.1,1.3c0.3,0,0.6-0.3,1-1h0.3v5.1h-0.4
		c-0.9-2.4-2.2-4.7-4-4.7c-1.1,0-1.8,1-1.8,2.3c0,2.1,1.8,3.4,3.5,4.8c1.8,1.4,3.6,3,3.6,5.5c0,2.6-1.3,4.5-3.5,4.5
		C120.6,18.8,119.5,17.2,119,17.2z"/>
	<path fill="#8D8D8D" d="M127.5,17.9h0.4c1.4,0,1.6-0.2,1.6-1.1V3c0-0.9-0.3-1.1-1.6-1.1h-0.4V1.3h6.3v0.6h-0.5
		c-1.3,0-1.5,0.2-1.5,1.1v13.6c0,0.9,0.3,1.1,1.5,1.1h0.5v0.6h-6.3V17.9z"/>
	<path fill="#8D8D8D" d="M137.5,17.9h0.4c1.4,0,1.6-0.2,1.6-1.1v-14c0-0.6-0.1-0.8-0.5-0.8c-0.2,0-0.6,0-0.6,0c-1,0-2,2.3-3,5.2
		l-0.4-0.1l0.7-5.8h10l0.7,5.8l-0.4,0.1c-1.2-3.5-1.9-5.2-3.2-5.3c0,0-0.2,0-0.4,0c-0.5,0-0.5,0.1-0.5,0.8v14c0,0.9,0.2,1.1,1.5,1.1
		h0.5v0.6h-6.3V17.9z"/>
	<path fill="#8D8D8D" d="M150.3,17.9h0.4c1.4,0,1.5-0.2,1.5-1.1V11l-3.5-7.9c-0.3-0.7-0.4-1-1.9-1.1V1.3h6.4v0.6l-0.5,0
		c-1.9,0.1-1.8,0.6-1.3,1.7l2.6,6.5l2.6-5.8c0.7-1.5,0.7-2.3-1.2-2.4l-0.4,0V1.3h4.6v0.6l-0.3,0c-0.8,0-0.9,0.2-2,2.6l-2.8,6.6v5.6
		c0,0.9,0.2,1.1,1.4,1.1h0.5v0.6h-6V17.9z"/>
</g>
</svg>
