<?xml version="1.0" encoding="utf-8"?>
<!-- Generator: Adobe Illustrator 18.1.1, SVG Export Plug-In . SVG Version: 6.00 Build 0)  -->
<svg version="1.1" baseProfile="basic" id="Layer_1"
	 xmlns="http://www.w3.org/2000/svg" xmlns:xlink="http://www.w3.org/1999/xlink" x="0px" y="0px" width="425px" height="50px"
	 viewBox="0 0 425 50" xml:space="preserve">
<g>
	<path fill="#3F403F" d="M20.1,3.5V1.9h14.5v1.6c-5.3,0.6-4.7,1.2-3.3,7l5.8,24l6-25.7c0.9-3.6,1.2-4.7-2.7-5.2l-1.2-0.1V1.9H50v1.6
		c-3.8,0.6-3.9,1.2-5,5.8l-9.5,39.4h-0.9l-8.8-35.7l-8.6,35.7h-0.9L6.1,7.3C5.3,4.1,5.2,3.9,1,3.5V1.9h14.7v1.6
		c-4,0.5-3.8,1.4-2.5,7L19,33.2l5.8-24.3C23.5,4.1,23,3.8,20.1,3.5z"/>
	<path fill="#3F403F" d="M56.6,44.1c-1.4,0-3,2.5-3.4,3.4h-1.2V32.6h1.2c3.6,8.1,8.7,14.1,12.9,14.1c3.4,0,5-3.1,5-6.6
		c0-5.9-4.6-9.3-9.3-13.1c-4.8-3.8-9.6-7.9-9.6-15C52,6.4,55.8,1,61.5,1c5,0,6.7,3.4,8.2,3.4c0.9,0,1.7-0.8,2.7-2.8h0.9v13.5h-1.2
		C69.7,8.6,66.3,2.7,61.4,2.7c-3,0-4.9,2.7-4.9,6.2c0,5.5,4.7,9,9.4,12.8c4.7,3.8,9.5,8,9.5,14.7c0,6.8-3.5,12-9.2,12
		C60.9,48.3,57.9,44.1,56.6,44.1z"/>
	<path fill="#3F403F" d="M78.4,41c0-4.5,3.1-6.2,4.6-6.2c1.7,0,3.4,1.1,3.4,3.6c0,3.2-4.2,3.5-4.2,5.5c0,2,1.1,3.4,3.4,3.4
		c4.4,0,4.5-3.7,4.5-10.7V6.4c0-2.4-0.7-3-3.9-3h-1.1V1.9h15.7v1.6h-1.4c-2.5,0-3.2,0.6-3.2,3v31.8C96.2,45,91.4,49,86.1,49
		C82.1,49,78.4,46.2,78.4,41z"/>
	<path fill="#8D8D8D" d="M119.3,34.7c0-6.4,0-28,0-28c0-2.4-0.7-3.2-3.9-3.2h-0.7V1.9h16.2v1.6l-1.9,0.1c-2.9,0.1-3.7,0.9-3.7,3.3
		c0,0,0,24.5,0,28.4c0,5.8,1.7,10.1,8.5,10.1c6.2,0,8.3-3.6,8.3-10.1V9.9c0-5.3,0-6.4-5.5-6.4h-0.9V1.9H148v1.7
		c-3.8,0.3-3.9,0.9-3.9,6.4v25.3c0,7.3-3.4,13-12.3,13C124.3,48.3,119.3,44.6,119.3,34.7z"/>
	<path fill="#8D8D8D" d="M150.2,3.5V1.9h9.5l18.2,32.6V9.6c0-4.4-0.2-5.6-5.3-6l-0.9-0.1V1.9h12.8v1.6c-4.7,0.3-4.7,1.7-4.7,6.5
		v38.8h-1.1L157.3,10v29.8c0,4.7,0.1,5.5,5.8,6.1v1.6h-12.6V46l0.9-0.1c4.2-0.3,4-2.2,4-6.4V6.6C153.9,4.2,153.1,3.5,150.2,3.5z"/>
	<path fill="#8D8D8D" d="M187,46h1.1c3.8,0,4.2-0.6,4.2-3V6.4c0-2.4-0.7-3-4.2-3H187V1.9h16.9v1.6h-1.4c-3.4,0-4,0.6-4,3v36.4
		c0,2.5,0.7,3,4,3h1.4v1.6H187V46z"/>
	<path fill="#8D8D8D" d="M211.2,8c-0.9-3.3-1.3-4-4-4.4l-1.3-0.1V1.9h16.8v1.6l-1.2,0.1c-5.6,0.3-4.8,1.1-3.8,4.8l7.5,27.6l7.1-26.1
		c1.4-4.8,1.5-6.1-3.2-6.3l-1.5-0.1V1.9h12.1v1.6c-3.2,0.3-3.7,0.7-5.2,5.8l-11,39.4h-0.9L211.2,8z"/>
	<path fill="#8D8D8D" d="M252.7,42.9c0,2.5,0.2,3.2,4,3l4.2-0.2c1.3-0.1,6.4-7.2,8.8-13.5l1.1,0.1L269,47.5h-27.2V46h0.7
		c3.8,0,4.2-0.6,4.2-3.6V6.4c0-2.4-0.7-3-4.2-3h-0.7V1.9h25.9l1.8,15.4l-1.1,0.3c-2.9-8.7-6.4-14.1-9-14.1c-1.9,0-3.8,0-3.8,0
		c-2.5,0-2.8,0.6-2.8,2.4v18.1l2.3-0.1c3.7-0.1,4.2-2.5,5.3-9.6h1.2v21.1h-1.2c-0.9-8.4-1.5-9.5-5.3-9.7l-2.3-0.1V42.9z"/>
	<path fill="#8D8D8D" d="M274.5,46h0.7c3.8,0,4.2-0.6,4.2-3.6V6.4c0-2.4-0.8-3-4.2-3h-0.7V1.9c0,0,10.1,0,16.5,0
		c5.4,0,12.1,4.8,12.1,12.1c0,5-3.6,9.1-9.9,10.7c5.4,2,6.5,4.4,7,11.7c0.6,7.7,1.3,8.8,3.4,8.8c2.5,0,3.2-4,3.3-7.6h1.4
		c-0.2,8.8-3.8,10.8-7.4,10.8c-3.6,0-6.4-1.4-6.6-5.7l-0.5-12c-0.2-4.6-0.9-5.2-4-5.2c-0.7,0-2.7,0-4.3,0v17.4c0,2.5,1.2,3,3.4,3
		h1.2v1.6h-15.6V46z M288.2,24.1c5.2,0,8.4-1.7,8.4-10.3c0-7-3.8-10.4-6.6-10.4c-1.4,0-1.7,0-1.7,0c-2.3,0-2.7,0.8-2.7,2.1v18.6
		C286.2,24.1,287.1,24.1,288.2,24.1z"/>
	<path fill="#8D8D8D" d="M315.6,44.1c-1.4,0-3,2.5-3.4,3.4H311V32.6h1.2c3.6,8.1,8.7,14.1,12.9,14.1c3.4,0,5-3.1,5-6.6
		c0-5.9-4.6-9.3-9.3-13.1c-4.8-3.8-9.6-7.9-9.6-15c0-5.7,3.7-11.1,9.5-11.1c5,0,6.7,3.4,8.2,3.4c0.9,0,1.7-0.8,2.7-2.8h0.9v13.5
		h-1.2c-2.4-6.5-5.8-12.5-10.7-12.5c-3,0-4.9,2.7-4.9,6.2c0,5.5,4.7,9,9.4,12.8c4.7,3.8,9.5,8,9.5,14.7c0,6.8-3.5,12-9.2,12
		C320,48.3,317,44.1,315.6,44.1z"/>
	<path fill="#8D8D8D" d="M338.4,46h1.1c3.8,0,4.2-0.6,4.2-3V6.4c0-2.4-0.7-3-4.2-3h-1.1V1.9h16.9v1.6h-1.4c-3.4,0-4,0.6-4,3v36.4
		c0,2.5,0.7,3,4,3h1.4v1.6h-16.9V46z"/>
	<path fill="#8D8D8D" d="M364.9,46h1.1c3.8,0,4.2-0.6,4.2-3V5.7c0-1.7-0.2-2.3-1.4-2.3c-0.5,0-1.6,0.1-1.6,0.1
		c-2.8,0.1-5.3,6.2-8.1,14l-1.1-0.3l1.8-15.4h26.8l1.8,15.4l-1.1,0.3c-3.2-9.2-5.2-13.9-8.4-14.1c0,0-0.7-0.1-1.1-0.1
		c-1.3,0-1.5,0.4-1.5,2.2v37.3c0,2.5,0.7,3,4,3h1.3v1.6h-16.8V46z"/>
	<path fill="#8D8D8D" d="M399.1,46h1.1c3.6,0,4-0.6,4-3V27.7L395,6.5c-0.9-2-1.1-2.7-5-3V1.9h17v1.6l-1.5,0.1
		c-5.2,0.3-4.7,1.5-3.4,4.6l7,17.2L416,9.8c1.8-4.1,1.9-6-3.2-6.3l-1.2-0.1V1.9h12.3v1.6l-0.9,0.1c-2.3,0.1-2.5,0.5-5.2,7L410.1,28
		v14.9c0,2.5,0.6,3,3.8,3h1.3v1.6h-16.1V46z"/>
</g>
</svg>
