<?xml version="1.0" encoding="utf-8"?>
<!-- Generator: Adobe Illustrator 18.1.1, SVG Export Plug-In . SVG Version: 6.00 Build 0)  -->
<svg version="1.1" baseProfile="basic" id="Layer_1"
	 xmlns="http://www.w3.org/2000/svg" xmlns:xlink="http://www.w3.org/1999/xlink" x="0px" y="0px" width="267px" height="32px"
	 viewBox="0 0 267 32" xml:space="preserve">
<g>
	<path fill="#3F403F" d="M12.9,2.5v-1h9v1c-3.3,0.4-2.9,0.7-2.1,4.4l3.6,15l3.7-16c0.5-2.3,0.7-2.9-1.7-3.2l-0.7-0.1v-1h6.8v1
		c-2.4,0.4-2.4,0.7-3.1,3.6l-5.9,24.6H22L16.5,8.4l-5.4,22.3h-0.6L4.2,4.9C3.7,2.9,3.7,2.8,1,2.5v-1h9.2v1C7.7,2.8,7.8,3.4,8.7,6.9
		l3.6,14.2l3.6-15.2C15.1,2.9,14.8,2.7,12.9,2.5z"/>
	<path fill="#3F403F" d="M35.7,27.9c-0.9,0-1.9,1.5-2.2,2.2h-0.7v-9.3h0.7c2.2,5.1,5.4,8.8,8.1,8.8c2.2,0,3.1-1.9,3.1-4.1
		c0-3.7-2.9-5.8-5.8-8.2c-3-2.4-6-4.9-6-9.4c0-3.6,2.3-6.9,5.9-6.9C41.9,1,43,3.1,44,3.1c0.5,0,1-0.5,1.7-1.7h0.6v8.5h-0.7
		C44,5.8,41.8,2,38.7,2c-1.9,0-3.1,1.7-3.1,3.9c0,3.4,2.9,5.6,5.9,8c2.9,2.4,5.9,5,5.9,9.2c0,4.3-2.2,7.5-5.8,7.5
		C38.5,30.6,36.6,27.9,35.7,27.9z"/>
	<path fill="#3F403F" d="M49.4,26c0-2.8,1.9-3.9,2.9-3.9c1.1,0,2.1,0.7,2.1,2.2c0,2-2.7,2.2-2.7,3.4c0,1.2,0.7,2.1,2.1,2.1
		c2.8,0,2.8-2.3,2.8-6.7V4.4c0-1.5-0.5-1.9-2.4-1.9h-0.7v-1h9.8v1h-0.9c-1.6,0-2,0.4-2,1.9v19.8c0,4.2-3,6.7-6.3,6.7
		C51.7,31,49.4,29.3,49.4,26z"/>
	<path fill="#8D8D8D" d="M74.9,22c0-4,0-17.5,0-17.5c0-1.5-0.4-2-2.4-2h-0.4v-1h10.2v1l-1.2,0c-1.8,0-2.3,0.5-2.3,2.1
		c0,0,0,15.3,0,17.8c0,3.6,1,6.3,5.3,6.3c3.9,0,5.2-2.2,5.2-6.3V6.6c0-3.3,0-4-3.4-4h-0.5v-1h7.6v1c-2.4,0.2-2.4,0.6-2.4,4v15.8
		c0,4.6-2.1,8.1-7.7,8.1C78.1,30.5,74.9,28.3,74.9,22z"/>
	<path fill="#8D8D8D" d="M94.3,2.5v-1h5.9l11.4,20.4V6.3c0-2.7-0.1-3.5-3.3-3.8l-0.5,0v-1h8v1c-2.9,0.2-2.9,1.1-2.9,4.1v24.2h-0.7
		L98.7,6.6v18.6c0,2.9,0,3.4,3.6,3.8v1h-7.9v-1l0.5,0c2.7-0.2,2.5-1.4,2.5-4V4.5C96.6,3,96,2.5,94.3,2.5z"/>
	<path fill="#8D8D8D" d="M117.3,29.1h0.7c2.4,0,2.7-0.4,2.7-1.9V4.4c0-1.5-0.5-1.9-2.7-1.9h-0.7v-1h10.6v1H127
		c-2.1,0-2.5,0.4-2.5,1.9v22.7c0,1.5,0.5,1.9,2.5,1.9h0.9v1h-10.6V29.1z"/>
	<path fill="#8D8D8D" d="M132.4,5.4c-0.6-2.1-0.8-2.5-2.5-2.7l-0.8-0.1v-1h10.5v1l-0.7,0c-3.5,0.2-3,0.7-2.4,3l4.7,17.2l4.4-16.3
		c0.9-3,1-3.8-2-3.9l-0.9,0v-1h7.6v1c-2,0.2-2.3,0.4-3.2,3.6l-6.9,24.6h-0.6L132.4,5.4z"/>
	<path fill="#8D8D8D" d="M158.3,27.2c0,1.5,0.1,2,2.5,1.9l2.6-0.1c0.8-0.1,4-4.5,5.5-8.4l0.7,0.1l-1.2,9.4h-17v-1h0.4
		c2.4,0,2.7-0.4,2.7-2.3V4.4c0-1.5-0.5-1.9-2.7-1.9h-0.4v-1h16.2l1.1,9.7l-0.7,0.2c-1.8-5.4-4-8.8-5.6-8.8c-1.2,0-2.4,0-2.4,0
		c-1.5,0-1.7,0.4-1.7,1.5v11.3l1.4,0c2.3-0.1,2.6-1.6,3.3-6h0.7v13.2H163c-0.6-5.3-1-6-3.3-6l-1.4,0V27.2z"/>
	<path fill="#8D8D8D" d="M172,29.1h0.4c2.4,0,2.7-0.4,2.7-2.3V4.4c0-1.5-0.5-1.9-2.7-1.9H172v-1c0,0,6.3,0,10.3,0
		c3.4,0,7.5,3,7.5,7.6c0,3.1-2.3,5.7-6.2,6.7c3.4,1.2,4.1,2.8,4.4,7.3c0.4,4.8,0.8,5.5,2.1,5.5c1.6,0,2-2.5,2.1-4.7h0.9
		c-0.1,5.5-2.4,6.8-4.6,6.8c-2.3,0-4-0.9-4.1-3.6l-0.3-7.5c-0.1-2.9-0.6-3.3-2.5-3.3c-0.5,0-1.7,0-2.7,0v10.9c0,1.5,0.7,1.9,2.1,1.9
		h0.7v1H172V29.1z M180.5,15.5c3.2,0,5.2-1,5.2-6.5c0-4.4-2.4-6.5-4.1-6.5c-0.9,0-1,0-1.1,0c-1.4,0-1.7,0.5-1.7,1.3v11.6
		C179.2,15.5,179.8,15.5,180.5,15.5z"/>
	<path fill="#8D8D8D" d="M197.6,27.9c-0.9,0-1.9,1.5-2.2,2.2h-0.7v-9.3h0.7c2.2,5.1,5.4,8.8,8.1,8.8c2.2,0,3.1-1.9,3.1-4.1
		c0-3.7-2.9-5.8-5.8-8.2c-3-2.4-6-4.9-6-9.4c0-3.6,2.3-6.9,5.9-6.9c3.1,0,4.2,2.1,5.1,2.1c0.5,0,1-0.5,1.7-1.7h0.6v8.5h-0.7
		c-1.5-4.1-3.6-7.8-6.7-7.8c-1.9,0-3.1,1.7-3.1,3.9c0,3.4,2.9,5.6,5.9,8c2.9,2.4,5.9,5,5.9,9.2c0,4.3-2.2,7.5-5.8,7.5
		C200.4,30.6,198.5,27.9,197.6,27.9z"/>
	<path fill="#8D8D8D" d="M211.9,29.1h0.7c2.4,0,2.7-0.4,2.7-1.9V4.4c0-1.5-0.5-1.9-2.7-1.9h-0.7v-1h10.6v1h-0.9
		c-2.1,0-2.5,0.4-2.5,1.9v22.7c0,1.5,0.5,1.9,2.5,1.9h0.9v1h-10.6V29.1z"/>
	<path fill="#8D8D8D" d="M228.4,29.1h0.7c2.4,0,2.7-0.4,2.7-1.9V3.9c0-1-0.1-1.4-0.9-1.4c-0.3,0-1,0.1-1,0.1
		c-1.7,0.1-3.3,3.9-5.1,8.7l-0.7-0.2l1.1-9.7H242l1.1,9.7l-0.7,0.2c-2-5.8-3.2-8.7-5.3-8.8c0,0-0.4,0-0.7,0c-0.8,0-0.9,0.2-0.9,1.4
		v23.3c0,1.5,0.4,1.9,2.5,1.9h0.8v1h-10.5V29.1z"/>
	<path fill="#8D8D8D" d="M249.8,29.1h0.7c2.3,0,2.5-0.4,2.5-1.9v-9.6l-5.8-13.2c-0.5-1.2-0.7-1.7-3.1-1.9v-1h10.6v1l-0.9,0
		c-3.2,0.2-2.9,1-2.2,2.9l4.4,10.8l4.3-9.7c1.1-2.6,1.2-3.8-2-3.9l-0.7,0v-1h7.7v1l-0.6,0c-1.4,0.1-1.5,0.3-3.3,4.4l-4.7,11v9.3
		c0,1.5,0.4,1.9,2.4,1.9h0.8v1h-10.1V29.1z"/>
</g>
</svg>
