<?xml version="1.0" encoding="utf-8"?>
<!-- Generator: Adobe Illustrator 18.1.1, SVG Export Plug-In . SVG Version: 6.00 Build 0)  -->
<svg version="1.1" baseProfile="tiny" id="Layer_1" xmlns="http://www.w3.org/2000/svg" xmlns:xlink="http://www.w3.org/1999/xlink"
	 x="0px" y="0px" width="86px" height="43px" viewBox="-262 375 86 43" xml:space="preserve">
<path fill="#DB7D2E" d="M-205,382h-28c-1.1,0-2-0.9-2-2v-3c0-1.1,0.9-2,2-2h28c1.1,0,2,0.9,2,2v3C-203,381.1-203.9,382-205,382z"/>
<g>
	<path fill="#DB7D2E" d="M-219,418c-5.1,0-10.2,0-12.2,0c-6,0-8.7-4.1-8.7-8.2l-0.1-13.6c-0.1-3.4,1.6-7.7,4-10.1
		c0.6-0.6,1.7-2.1,2-2.5l0.5-0.7h28.9l0.5,0.7c0.3,0.5,1.4,1.9,2,2.5c2.5,2.4,4.2,6.6,4,10.1l-0.1,13.5c0,4-2.7,8.1-8.7,8.2
		C-208.8,418-213.9,418-219,418z M-231.8,386c-0.5,0.7-1.3,1.7-1.9,2.3c-1.9,1.8-3.2,5.2-3.1,7.9l0.1,13.6c0,1.2,0.4,5.1,5.7,5.2
		c4.1,0,20.4,0,24.4,0c5.2,0,5.6-4,5.7-5.2l0.1-13.6c0.1-2.7-1.3-6.1-3.1-7.9c-0.6-0.6-1.4-1.7-1.9-2.3H-231.8z"/>
</g>
<g>
	<path fill="#DB7D2E" d="M-235,400l0.1,7.7c0,1.2-0.6,5.2,4.7,5.2c4.1,0,18.5,0,22.5,0c5.3,0,4.7-4,4.7-5.2l0.1-7.7L-235,400z"/>
</g>
</svg>
