<?xml version="1.0" encoding="utf-8"?>
<!-- Generator: Adobe Illustrator 18.1.1, SVG Export Plug-In . SVG Version: 6.00 Build 0)  -->
<svg version="1.1" baseProfile="tiny" id="Layer_1" xmlns="http://www.w3.org/2000/svg" xmlns:xlink="http://www.w3.org/1999/xlink"
	 x="0px" y="0px" width="86px" height="60px" viewBox="-262 375 86 60" xml:space="preserve">
<g>
	<path d="M-221.5,382.3h-0.3c-1.4,0-2.2,0.2-2.7,2.8l-5.5,27.4h-1.6l-3.4-17.9l0,0l-3.5,17.9h-1.6l-5.4-28.1
		c-0.3-1.7-0.8-2.1-2.3-2.1h-0.1v-1.2h8.2v1.2h-0.1c-1.2,0-1.5,0.5-1.5,1.3c0,0.2,0,0.5,0,0.7l3.4,19h0.1l2.2-12.5l-1.2-6.3
		c-0.2-1.5-0.6-2.1-1.9-2.1h-0.2v-1.2h8v1.2h-0.1c-1.5,0-1.7,0.5-1.7,1.6c0,0.2,0,0.6,0.1,0.9l3.4,18.2h0.1l3.3-18.2
		c0-0.2,0.1-0.5,0.1-0.7c0-1.3-0.3-1.7-2-1.7h-0.2v-1.2h6.8v0.9H-221.5z"/>
	<path d="M-208,404.8c0,5.5-3.3,7.8-7,7.8c-2.7,0-4-0.9-5.2-1.9l-0.7,1.6h-0.8v-10.7h1v0.3c0,7.6,3.6,9.2,5.5,9.2c2.8,0,4-1.6,4-4.9
		c0-3.6-2.2-6.2-5.2-8.6c-2.8-2.2-5.5-5-5.5-9.6c0-4.7,2.8-7.1,6.2-7.1c2.8,0,4.1,1.2,4.8,1.9l0.7-1.5h0.7v10.7h-1v-0.3
		c0-5.8-1.6-9.3-5-9.3c-2.1,0-3.3,1.5-3.3,4c0,2.9,1.6,4.5,4.8,7.1C-210.7,396.2-208,399.1-208,404.8"/>
	<path d="M-192.3,382.3h-0.7c-1,0-1.6,0.5-1.6,1.7v21.8c0,4.9-2.9,6.8-6.8,6.8c-2.7,0-5.4-2.3-5.4-6.8c0-2.3,1.4-3.4,2.6-3.4
		c1.2,0,2,0.8,2,2.3c0,1.9-1,2.7-2.4,2.9c0,1.6,1.2,3.5,3.3,3.5c2,0,2.7-1.2,2.7-4.4v-22.6c0-1.3-0.6-1.7-1.6-1.7h-0.8v-1.2h9v1
		H-192.3z"/>
	<polygon points="-243.7,417.8 -241.7,417.8 -238,428.3 -238,428.3 -234.1,417.8 -232.3,417.8 -237.3,430.7 -238.8,430.7 	"/>
	<rect x="-230.8" y="417.8" width="1.7" height="12.8"/>
	<polygon points="-215.8,417.8 -207.7,417.8 -207.7,419.5 -214.1,419.5 -214.1,423.3 -208.1,423.3 -208.1,424.9 -214.1,424.9 
		-214.1,429 -207.3,429 -207.3,430.7 -215.8,430.7 	"/>
	<path d="M-199,429.4c0.7,0,1.4-0.1,2-0.3c0.6-0.2,1-0.6,1.5-1s0.7-1,0.9-1.6c0.2-0.6,0.3-1.3,0.3-2c0-0.7-0.1-1.4-0.3-2
		c-0.2-0.6-0.6-1.2-0.9-1.6c-0.5-0.5-0.9-0.8-1.5-1c-0.6-0.2-1.3-0.3-2-0.3c-0.7,0-1.4,0.1-2,0.3c-0.6,0.2-1,0.6-1.5,1
		c-0.5,0.5-0.7,1-0.9,1.6c-0.2,0.6-0.3,1.3-0.3,2c0,0.7,0.1,1.4,0.3,2c0.2,0.6,0.6,1.2,0.9,1.6c0.5,0.5,0.9,0.8,1.5,1
		C-200.4,429.3-199.9,429.4-199,429.4 M-199,431c-0.9,0-1.9-0.1-2.7-0.5c-0.8-0.3-1.5-0.8-2.1-1.4s-1-1.3-1.4-2.1
		c-0.3-0.8-0.5-1.7-0.5-2.7c0-0.9,0.1-1.9,0.5-2.7c0.3-0.8,0.8-1.5,1.4-2.1c0.6-0.6,1.3-1,2.1-1.4c0.8-0.3,1.7-0.5,2.7-0.5
		s1.9,0.1,2.7,0.5s1.5,0.8,2.1,1.4c0.6,0.6,1,1.3,1.4,2.1c0.3,0.8,0.5,1.7,0.5,2.7c0,0.9-0.1,1.9-0.5,2.7c-0.3,0.8-0.8,1.5-1.4,2.1
		s-1.3,1-2.1,1.4C-197.3,430.9-198.1,431-199,431"/>
	<path fill="#0087C6" d="M-225.5,418.6v11.2c0,0.9,1,1.3,1.6,0.7l5.6-5.6c0.3-0.3,0.3-1,0-1.4l-5.6-5.6
		C-224.5,417.4-225.5,417.7-225.5,418.6"/>
</g>
</svg>
