<?xml version="1.0" encoding="utf-8"?>
<!-- Generator: Adobe Illustrator 18.1.1, SVG Export Plug-In . SVG Version: 6.00 Build 0)  -->
<svg version="1.1" id="Layer_1" xmlns="http://www.w3.org/2000/svg" xmlns:xlink="http://www.w3.org/1999/xlink" x="0px" y="0px"
	 width="86px" height="43px" viewBox="-262 418 86 43" enable-background="new -262 418 86 43" xml:space="preserve">
<path d="M-243.9,429.9h-0.2c-0.9,0-1.4,0.2-1.7,1.8l-3.5,17.4h-1.1l-2.2-11.4h0l-2.2,11.4h-1.1l-3.4-17.8c-0.2-1.1-0.5-1.4-1.5-1.4
	h-0.1v-0.7h5.2v0.7h-0.1c-0.8,0-0.9,0.3-0.9,0.8c0,0.1,0,0.3,0,0.4l2.2,12h0.1l1.4-7.9l-0.7-4c-0.2-1-0.4-1.4-1.2-1.4h-0.1v-0.7h5.2
	v0.7h-0.1c-1,0-1.2,0.3-1.2,1c0,0.2,0,0.4,0.1,0.6l2.2,11.5h0.1l2.1-11.5c0-0.2,0-0.3,0-0.5c0-0.8-0.3-1.1-1.3-1.1h-0.1v-0.7h4.4
	L-243.9,429.9L-243.9,429.9z"/>
<path d="M-235.2,444.1c0,3.5-2.1,4.9-4.5,4.9c-1.8,0-2.6-0.6-3.4-1.2l-0.5,1h-0.5v-6.8h0.7v0.2c0,4.8,2.3,5.8,3.5,5.8
	c1.8,0,2.6-1.1,2.6-3.1c0-2.3-1.4-3.9-3.4-5.5c-1.8-1.4-3.5-3.1-3.5-6c0-3,1.8-4.5,3.9-4.5c1.8,0,2.6,0.7,3.1,1.2l0.5-1h0.5v6.8
	h-0.7v-0.2c0-3.7-1.1-5.9-3.2-5.9c-1.4,0-2.1,1-2.1,2.5c0,1.9,1.1,2.9,3.1,4.5C-236.9,438.7-235.2,440.5-235.2,444.1"/>
<path d="M-225.1,429.9h-0.5c-0.7,0-1.1,0.3-1.1,1.1v13.8c0,3.1-1.9,4.2-4.3,4.2c-1.7,0-3.5-1.4-3.5-4.2c0-1.5,0.9-2.1,1.6-2.1
	c0.8,0,1.3,0.6,1.3,1.5c0,1.2-0.7,1.7-1.6,1.8c0,1,0.8,2.2,2.1,2.2c1.3,0,1.7-0.7,1.7-2.8V431c0-0.8-0.4-1.1-1-1.1h-0.5v-0.7h5.7
	L-225.1,429.9L-225.1,429.9z"/>
<path d="M-218.9,433.9h1.6l3,8.4h0l3.2-8.4h1.5l-4.1,10.4h-1.3L-218.9,433.9z"/>
<path d="M-208.3,433.9h1.4v10.4h-1.4V433.9z"/>
<path d="M-196.1,433.9h6.7v1.3h-5.3v3.1h4.9v1.3h-4.9v3.3h5.5v1.3h-6.9C-196.1,444.2-196.1,433.9-196.1,433.9z"/>
<path d="M-182.4,444.5c-0.8,0-1.5-0.1-2.2-0.4c-0.7-0.3-1.2-0.7-1.7-1.1c-0.5-0.5-0.8-1.1-1.1-1.7c-0.3-0.7-0.4-1.4-0.4-2.1
	s0.1-1.5,0.4-2.1c0.3-0.7,0.6-1.2,1.1-1.7c0.5-0.5,1-0.9,1.7-1.2c0.7-0.3,1.4-0.4,2.2-0.4c0.8,0,1.5,0.1,2.2,0.4s1.2,0.7,1.7,1.2
	c0.5,0.5,0.8,1.1,1.1,1.7c0.3,0.7,0.4,1.4,0.4,2.1s-0.1,1.5-0.4,2.1c-0.3,0.7-0.6,1.2-1.1,1.7c-0.5,0.5-1,0.9-1.7,1.1
	C-180.9,444.4-181.6,444.5-182.4,444.5z M-182.4,443.2c0.6,0,1.1-0.1,1.6-0.3c0.5-0.2,0.9-0.5,1.2-0.9c0.3-0.4,0.6-0.8,0.8-1.3
	c0.2-0.5,0.3-1,0.3-1.6c0-0.6-0.1-1.1-0.3-1.6s-0.4-0.9-0.8-1.3c-0.3-0.4-0.8-0.7-1.2-0.9c-0.5-0.2-1-0.3-1.6-0.3
	c-0.6,0-1.1,0.1-1.6,0.3c-0.5,0.2-0.9,0.5-1.2,0.9c-0.3,0.4-0.6,0.8-0.8,1.3s-0.3,1-0.3,1.6c0,0.6,0.1,1.1,0.3,1.6
	c0.2,0.5,0.4,0.9,0.8,1.3s0.8,0.7,1.2,0.9C-183.5,443.1-183,443.2-182.4,443.2z"/>
<path fill="#0087C6" d="M-204,434.5v9c0,0.7,0.9,1.1,1.4,0.6l4.5-4.5c0.3-0.3,0.3-0.8,0-1.1l-4.5-4.5
	C-203.2,433.4-204,433.8-204,434.5z"/>
</svg>
