<?xml version="1.0" encoding="utf-8"?>
<!-- Generator: Adobe Illustrator 18.1.1, SVG Export Plug-In . SVG Version: 6.00 Build 0)  -->
<svg version="1.1" id="Layer_1" xmlns="http://www.w3.org/2000/svg" xmlns:xlink="http://www.w3.org/1999/xlink" x="0px" y="0px"
	 width="120px" height="38px" viewBox="0 0 120 38" style="enable-background:new 0 0 120 38;" xml:space="preserve">
<style type="text/css">
	.st0{fill:#FFFFFF;}
</style>
<g>
	<path d="M120,34.2c0,2.1-1.7,3.8-3.8,3.8H3.8C1.7,38,0,36.3,0,34.2V3.8C0,1.7,1.7,0,3.8,0h112.5c2.1,0,3.8,1.7,3.8,3.8V34.2z"/>
	<path class="st0" d="M23.4,18.5c0-3.2,2.6-4.7,2.7-4.8c-1.5-2.2-3.8-2.5-4.6-2.5c-1.9-0.2-3.8,1.2-4.8,1.2c-1,0-2.5-1.1-4.1-1.1
		c-2.1,0-4.1,1.3-5.1,3.1C5.3,18.3,6.9,24,9,27.1c1.1,1.5,2.3,3.2,3.9,3.2c1.6-0.1,2.2-1,4.1-1c1.9,0,2.5,1,4.1,1
		c1.7,0,2.8-1.5,3.8-3.1c1.2-1.7,1.7-3.5,1.7-3.6C26.7,23.6,23.4,22.3,23.4,18.5"/>
	<path class="st0" d="M20.3,9.2c0.9-1.1,1.4-2.5,1.3-4c-1.2,0.1-2.8,0.9-3.7,1.9c-0.8,0.9-1.5,2.4-1.3,3.9
		C18,11.1,19.4,10.3,20.3,9.2"/>
	<path class="st0" d="M46.5,30h-2.2L43,26.2h-4.2L37.6,30h-2.2L39.7,17h2.6L46.5,30z M42.7,24.6l-1.1-3.4c-0.1-0.3-0.3-1.2-0.7-2.5
		h0c-0.1,0.6-0.3,1.4-0.6,2.5l-1.1,3.4H42.7z"/>
	<path class="st0" d="M57.3,25.2c0,1.6-0.4,2.9-1.3,3.8c-0.8,0.8-1.7,1.2-2.9,1.2c-1.2,0-2.1-0.4-2.7-1.3v4.9h-2.1V23.7
		c0-1,0-2-0.1-3.1H50l0.1,1.5h0c0.7-1.1,1.8-1.7,3.2-1.7c1.1,0,2,0.4,2.8,1.3C56.9,22.6,57.3,23.8,57.3,25.2 M55.1,25.3
		c0-0.9-0.2-1.7-0.6-2.3c-0.5-0.6-1.1-0.9-1.8-0.9c-0.5,0-1,0.2-1.4,0.5c-0.4,0.3-0.7,0.8-0.8,1.3c-0.1,0.3-0.1,0.5-0.1,0.6v1.6
		c0,0.7,0.2,1.3,0.6,1.7c0.4,0.5,1,0.7,1.6,0.7c0.8,0,1.4-0.3,1.8-0.9C54.9,27.1,55.1,26.3,55.1,25.3"/>
	<path class="st0" d="M68.1,25.2c0,1.6-0.4,2.9-1.3,3.8c-0.8,0.8-1.7,1.2-2.9,1.2c-1.2,0-2.1-0.4-2.7-1.3v4.9h-2.1V23.7
		c0-1,0-2-0.1-3.1h1.8l0.1,1.5h0c0.7-1.1,1.8-1.7,3.2-1.7c1.1,0,2,0.4,2.8,1.3C67.7,22.6,68.1,23.8,68.1,25.2 M65.9,25.3
		c0-0.9-0.2-1.7-0.6-2.3c-0.5-0.6-1.1-0.9-1.8-0.9c-0.5,0-1,0.2-1.4,0.5c-0.4,0.3-0.7,0.8-0.8,1.3c-0.1,0.3-0.1,0.5-0.1,0.6v1.6
		c0,0.7,0.2,1.3,0.6,1.7c0.4,0.5,1,0.7,1.6,0.7c0.8,0,1.4-0.3,1.8-0.9C65.7,27.1,65.9,26.3,65.9,25.3"/>
	<path class="st0" d="M80.2,26.4c0,1.1-0.4,2-1.2,2.7c-0.8,0.8-2,1.1-3.6,1.1c-1.4,0-2.5-0.3-3.4-0.8l0.5-1.7c0.9,0.5,1.9,0.8,3,0.8
		c0.8,0,1.4-0.2,1.8-0.5c0.4-0.4,0.7-0.8,0.7-1.4c0-0.5-0.2-1-0.5-1.3c-0.4-0.4-1-0.7-1.8-1c-2.3-0.9-3.4-2.1-3.4-3.7
		c0-1.1,0.4-1.9,1.2-2.6c0.8-0.7,1.9-1,3.2-1c1.2,0,2.2,0.2,3,0.6l-0.5,1.7c-0.7-0.4-1.6-0.6-2.5-0.6c-0.7,0-1.3,0.2-1.7,0.5
		c-0.3,0.3-0.5,0.7-0.5,1.2c0,0.5,0.2,0.9,0.6,1.3c0.3,0.3,1,0.6,1.9,1c1.1,0.5,1.9,1,2.5,1.6C79.9,24.7,80.2,25.5,80.2,26.4"/>
	<path class="st0" d="M87.1,22.2h-2.3v4.6c0,1.2,0.4,1.7,1.2,1.7c0.4,0,0.7,0,0.9-0.1L87,30c-0.4,0.2-1,0.2-1.6,0.2
		c-0.8,0-1.5-0.3-1.9-0.8c-0.5-0.5-0.7-1.3-0.7-2.5v-4.7h-1.4v-1.6h1.4v-1.7l2.1-0.6v2.3h2.3V22.2z"/>
	<path class="st0" d="M97.5,25.3c0,1.4-0.4,2.6-1.2,3.6c-0.9,1-2,1.4-3.4,1.4c-1.4,0-2.5-0.5-3.3-1.4c-0.8-0.9-1.2-2.1-1.2-3.5
		c0-1.5,0.4-2.7,1.3-3.6c0.8-0.9,2-1.4,3.4-1.4c1.4,0,2.5,0.5,3.3,1.4C97.1,22.7,97.5,23.8,97.5,25.3 M95.3,25.3
		c0-0.9-0.2-1.6-0.6-2.2c-0.4-0.7-1.1-1.1-1.9-1.1c-0.8,0-1.5,0.4-1.9,1.1c-0.4,0.6-0.6,1.4-0.6,2.3c0,0.9,0.2,1.6,0.6,2.2
		c0.5,0.7,1.1,1.1,1.9,1.1c0.8,0,1.4-0.4,1.9-1.1C95.1,26.9,95.3,26.2,95.3,25.3"/>
	<path class="st0" d="M104.3,22.5c-0.2,0-0.4-0.1-0.7-0.1c-0.7,0-1.3,0.3-1.7,0.8c-0.3,0.5-0.5,1.1-0.5,1.9V30h-2.1v-6.4
		c0-1.1,0-2.1-0.1-3h1.8l0.1,1.8h0.1c0.2-0.6,0.6-1.1,1-1.5c0.5-0.3,1-0.5,1.5-0.5c0.2,0,0.4,0,0.5,0L104.3,22.5L104.3,22.5z"/>
	<path class="st0" d="M113.6,24.9c0,0.4,0,0.7-0.1,0.9h-6.3c0,0.9,0.3,1.6,0.9,2.1c0.5,0.4,1.2,0.7,2.1,0.7c0.9,0,1.8-0.1,2.5-0.4
		l0.3,1.5c-0.9,0.4-1.9,0.6-3.2,0.6c-1.5,0-2.6-0.4-3.4-1.3c-0.8-0.9-1.2-2-1.2-3.5c0-1.4,0.4-2.6,1.2-3.5c0.8-1,1.9-1.5,3.3-1.5
		c1.4,0,2.4,0.5,3.1,1.5C113.3,22.7,113.6,23.7,113.6,24.9 M111.6,24.3c0-0.6-0.1-1.2-0.4-1.6c-0.4-0.6-0.9-0.9-1.7-0.9
		c-0.7,0-1.2,0.3-1.7,0.9c-0.3,0.5-0.6,1-0.6,1.6H111.6z"/>
	<path class="st0" d="M38.2,12.4c-0.6,0-1.1,0-1.5-0.1V6c0.5-0.1,1.1-0.1,1.8-0.1C40.9,5.8,42,7,42,8.9C42,11.2,40.7,12.4,38.2,12.4
		 M38.5,6.7c-0.3,0-0.6,0-0.8,0.1v4.8c0.1,0,0.4,0,0.7,0c1.6,0,2.5-0.9,2.5-2.6C40.9,7.5,40.1,6.7,38.5,6.7"/>
	<path class="st0" d="M45.4,12.4c-1.3,0-2.2-1-2.2-2.4c0-1.4,0.9-2.4,2.3-2.4c1.3,0,2.2,1,2.2,2.4C47.7,11.4,46.8,12.4,45.4,12.4
		 M45.4,8.3c-0.7,0-1.2,0.7-1.2,1.7c0,1,0.5,1.6,1.2,1.6c0.7,0,1.2-0.7,1.2-1.7C46.6,9,46.2,8.3,45.4,8.3"/>
	<path class="st0" d="M55.4,7.7L54,12.3H53l-0.6-2c-0.2-0.5-0.3-1-0.4-1.5h0c-0.1,0.5-0.2,1-0.4,1.5l-0.6,2h-1l-1.4-4.6h1.1l0.5,2.2
		c0.1,0.5,0.2,1,0.3,1.5h0c0.1-0.4,0.2-0.9,0.4-1.5l0.7-2.2h0.8l0.6,2.2c0.2,0.5,0.3,1,0.4,1.5h0c0.1-0.5,0.2-1,0.3-1.5l0.6-2.2
		L55.4,7.7L55.4,7.7z"/>
	<path class="st0" d="M60.7,12.3h-1V9.7c0-0.8-0.3-1.2-0.9-1.2c-0.6,0-1,0.5-1,1.1v2.8h-1V9c0-0.4,0-0.8,0-1.3h0.9l0,0.7h0
		c0.3-0.5,0.8-0.8,1.5-0.8c1,0,1.6,0.7,1.6,2V12.3z"/>
	<rect x="62.5" y="5.6" class="st0" width="1" height="6.8"/>
	<path class="st0" d="M67.3,12.4c-1.3,0-2.2-1-2.2-2.4c0-1.4,0.9-2.4,2.3-2.4c1.3,0,2.2,1,2.2,2.4C69.6,11.4,68.7,12.4,67.3,12.4
		 M67.3,8.3c-0.7,0-1.2,0.7-1.2,1.7c0,1,0.5,1.6,1.2,1.6c0.7,0,1.2-0.7,1.2-1.7C68.5,9,68.1,8.3,67.3,8.3"/>
	<path class="st0" d="M73.7,12.3l-0.1-0.5h0c-0.3,0.4-0.8,0.6-1.4,0.6c-0.8,0-1.4-0.6-1.4-1.4c0-1.1,1-1.7,2.7-1.7V9.2
		c0-0.6-0.3-0.9-1-0.9c-0.5,0-0.9,0.1-1.2,0.3L71.1,8c0.4-0.3,1-0.4,1.6-0.4c1.2,0,1.8,0.6,1.8,1.9v1.7c0,0.5,0,0.8,0.1,1.1H73.7z
		 M73.5,10c-1.1,0-1.7,0.3-1.7,0.9c0,0.5,0.3,0.7,0.7,0.7c0.5,0,1-0.4,1-0.9V10z"/>
	<path class="st0" d="M79.5,12.3l0-0.7h0c-0.3,0.6-0.8,0.8-1.5,0.8c-1.1,0-1.9-1-1.9-2.4c0-1.4,0.9-2.5,2-2.5c0.6,0,1.1,0.2,1.3,0.6
		h0V5.6h1v5.5c0,0.4,0,0.9,0,1.2H79.5z M79.3,9.6c0-0.6-0.4-1.2-1.1-1.2C77.5,8.4,77,9.1,77,10c0,0.9,0.5,1.6,1.2,1.6
		c0.6,0,1.1-0.6,1.1-1.2V9.6z"/>
	<path class="st0" d="M86.9,12.4c-1.3,0-2.2-1-2.2-2.4c0-1.4,0.9-2.4,2.3-2.4c1.3,0,2.2,1,2.2,2.4C89.2,11.4,88.3,12.4,86.9,12.4
		 M86.9,8.3c-0.7,0-1.2,0.7-1.2,1.7c0,1,0.5,1.6,1.2,1.6c0.7,0,1.2-0.7,1.2-1.7C88.1,9,87.7,8.3,86.9,8.3"/>
	<path class="st0" d="M94.7,12.3h-1V9.7c0-0.8-0.3-1.2-0.9-1.2c-0.6,0-1,0.5-1,1.1v2.8h-1V9c0-0.4,0-0.8,0-1.3h0.9l0,0.7h0
		c0.3-0.5,0.8-0.8,1.5-0.8c1,0,1.6,0.7,1.6,2V12.3z"/>
	<path class="st0" d="M101.6,8.5h-1.1v2.2c0,0.6,0.2,0.9,0.6,0.9c0.2,0,0.3,0,0.5,0l0,0.8c-0.2,0.1-0.5,0.1-0.8,0.1
		c-0.8,0-1.3-0.4-1.3-1.6V8.5h-0.7V7.7h0.7V6.8l1-0.3v1.2h1.1V8.5z"/>
	<path class="st0" d="M107.1,12.3h-1V9.7c0-0.8-0.3-1.2-0.9-1.2c-0.5,0-1,0.4-1,1.1v2.8h-1V5.6h1v2.8h0c0.3-0.5,0.8-0.8,1.4-0.8
		c1,0,1.6,0.8,1.6,2V12.3z"/>
	<path class="st0" d="M112.6,10.2h-3.1c0,0.9,0.6,1.4,1.5,1.4c0.5,0,0.9-0.1,1.2-0.2l0.2,0.7c-0.4,0.2-1,0.3-1.6,0.3
		c-1.4,0-2.3-0.9-2.3-2.3c0-1.4,0.9-2.5,2.2-2.5c1.2,0,1.9,0.9,1.9,2.2C112.7,10,112.7,10.1,112.6,10.2 M111.7,9.5
		c0-0.7-0.4-1.2-1-1.2c-0.6,0-1.1,0.5-1.1,1.2H111.7z"/>
</g>
</svg>
