<?xml version="1.0" encoding="utf-8"?>
<!-- Generator: Adobe Illustrator 18.1.1, SVG Export Plug-In . SVG Version: 6.00 Build 0)  -->
<svg version="1.1" id="Layer_1" xmlns="http://www.w3.org/2000/svg" xmlns:xlink="http://www.w3.org/1999/xlink" x="0px" y="0px"
	 width="86px" height="43px" viewBox="-76 3.5 86 43" enable-background="new -76 3.5 86 43" xml:space="preserve">
<path fill="#9DC13B" d="M-10.1,3.5h-45.7c-2.8,0-5.2,2.4-5.2,5.3v32.5c0,2.8,2.4,5.2,5.2,5.2h45.6c2.9,0,5.2-2.4,5.2-5.3V8.8
	C-4.9,5.9-7.3,3.5-10.1,3.5z M-55.8,7h45.6c1,0,1.8,0.8,1.8,1.8v0.6l-24.3,18.2L-57.5,9V8.8C-57.5,7.8-56.7,7-55.8,7z M-22.5,31.3
	l14,10.5l0,0c-0.2,0.7-0.9,1.2-1.6,1.2h-45.7c-0.8,0-1.4-0.5-1.6-1.2l0,0l14-10.5c0.8-0.5,1-1.6,0.5-2.4s-1.6-1-2.4-0.5l-12.2,9.2
	V13.4l23.7,17.8c0.3,0.2,0.7,0.3,1,0.3s0.7-0.1,1-0.3l23.3-17.5v23.8l-12.1-9.2c-0.8-0.5-1.9-0.3-2.4,0.5
	C-23.5,29.6-23.3,30.7-22.5,31.3z"/>
</svg>
