<?xml version="1.0" encoding="utf-8"?>
<!-- Generator: Adobe Illustrator 18.1.1, SVG Export Plug-In . SVG Version: 6.00 Build 0)  -->
<svg version="1.1" id="Layer_1" xmlns="http://www.w3.org/2000/svg" xmlns:xlink="http://www.w3.org/1999/xlink" x="0px" y="0px"
	 width="120px" height="38px" viewBox="0 0 120 38" style="enable-background:new 0 0 120 38;" xml:space="preserve">
<style type="text/css">
	.st0{fill:#FFFFFF;}
	.st1{clip-path:url(#SVGID_2_);fill:url(#SVGID_3_);}
	.st2{clip-path:url(#SVGID_5_);fill:url(#SVGID_6_);}
	.st3{clip-path:url(#SVGID_8_);fill:url(#SVGID_9_);}
	.st4{clip-path:url(#SVGID_11_);fill:url(#SVGID_12_);}
</style>
<g>
	<path d="M120,34.2c0,2.1-1.7,3.8-3.8,3.8H3.8C1.7,38,0,36.3,0,34.2V3.8C0,1.7,1.7,0,3.8,0h112.4c2.1,0,3.8,1.7,3.8,3.8V34.2z"/>
	<g>
		<path class="st0" d="M80.2,28.4l-0.8,0.8c-0.2,0.1-0.4,0.2-0.6,0.3c-0.6,0.3-1.2,0.3-1.7,0.3c-0.6,0-1.4,0-2.3-0.7
			c-1.2-0.9-1.8-2.4-1.8-3.7c0-2.7,2.2-4.1,4-4.1c0.6,0,1.3,0.2,1.8,0.5c0.9,0.6,1.1,1.3,1.2,1.7L76,25.3l-1.3,0.1
			c0.4,2.2,1.9,3.5,3.6,3.5C79,29,79.6,28.7,80.2,28.4C80.2,28.4,80.3,28.4,80.2,28.4 M77.8,24c0.3-0.1,0.5-0.2,0.5-0.5
			c0-0.7-0.8-1.5-1.7-1.5c-0.7,0-2,0.5-2,2.4c0,0.3,0,0.6,0.1,0.9L77.8,24z"/>
		<path class="st0" d="M71.7,28.3c0,0.7,0.1,0.8,0.7,0.8c0.3,0,0.6,0.1,0.9,0.1l-0.6,0.4h-3.1C70,29.1,70,29,70,28.7v-0.4l0-10.4
			h-1.4l1.3-0.6h2.5c-0.5,0.3-0.7,0.5-0.8,1.1L71.7,28.3z"/>
		<path class="st0" d="M66.9,22.3c0.4,0.3,1.2,1,1.2,2.4c0,1.3-0.7,1.9-1.5,2.5c-0.2,0.2-0.5,0.5-0.5,0.9c0,0.4,0.3,0.6,0.5,0.8
			l0.6,0.5c0.8,0.7,1.5,1.2,1.5,2.5c0,1.6-1.6,3.3-4.6,3.3c-2.5,0-3.7-1.2-3.7-2.5c0-0.6,0.3-1.5,1.3-2.1c1.1-0.7,2.5-0.8,3.3-0.8
			c-0.2-0.3-0.5-0.7-0.5-1.2c0-0.3,0.1-0.5,0.2-0.7c-0.2,0-0.4,0-0.6,0c-1.8,0-2.9-1.4-2.9-2.8c0-0.8,0.4-1.7,1.1-2.4
			c1-0.8,2.2-1,3.1-1h3.6L68,22.3H66.9z M65.7,30.1c-0.1,0-0.2,0-0.4,0c-0.2,0-1.1,0-1.8,0.3c-0.4,0.1-1.5,0.6-1.5,1.8
			c0,1.2,1.2,2.1,3.1,2.1c1.7,0,2.6-0.8,2.6-1.9C67.6,31.5,67,31,65.7,30.1 M66.2,26.8c0.4-0.4,0.4-1,0.4-1.3c0-1.3-0.7-3.2-2.2-3.2
			c-0.5,0-0.9,0.2-1.2,0.6c-0.3,0.4-0.4,0.8-0.4,1.3c0,1.2,0.7,3.1,2.2,3.1C65.4,27.2,65.9,27,66.2,26.8"/>
		<path class="st0" d="M56.1,29.8c-2.8,0-4.2-2.2-4.2-4.1c0-2.3,1.9-4.3,4.5-4.3c2.6,0,4.2,2,4.2,4.1C60.6,27.6,59,29.8,56.1,29.8
			 M58.3,28.4c0.4-0.6,0.5-1.3,0.5-1.9c0-1.5-0.7-4.5-2.9-4.5c-0.6,0-1.2,0.2-1.6,0.6c-0.7,0.6-0.8,1.4-0.8,2.1c0,1.7,0.8,4.6,3,4.6
			C57.2,29.3,57.9,29,58.3,28.4"/>
		<path class="st0" d="M46.9,29.8c-2.8,0-4.2-2.2-4.2-4.1c0-2.3,1.9-4.3,4.5-4.3c2.6,0,4.2,2,4.2,4.1C51.3,27.6,49.7,29.8,46.9,29.8
			 M49.1,28.4c0.4-0.6,0.5-1.3,0.5-1.9c0-1.5-0.7-4.5-2.9-4.5c-0.6,0-1.1,0.2-1.6,0.6c-0.7,0.6-0.8,1.4-0.8,2.1c0,1.7,0.9,4.6,3,4.6
			C48,29.3,48.7,29,49.1,28.4"/>
		<path class="st0" d="M41.5,29.2l-2.3,0.5c-0.9,0.2-1.8,0.3-2.7,0.3c-4.5,0-6.2-3.3-6.2-6c0-3.2,2.4-6.2,6.6-6.2
			c0.9,0,1.7,0.1,2.5,0.3c1.2,0.3,1.8,0.8,2.2,1l-1.4,1.3l-0.6,0.1l0.4-0.7c-0.6-0.5-1.6-1.5-3.5-1.5c-2.6,0-4.5,2-4.5,4.9
			c0,3.1,2.2,6,5.8,6c1,0,1.6-0.2,2.1-0.4v-2.7l-2.5,0.1l1.3-0.7h3.5l-0.4,0.4c-0.1,0.1-0.1,0.1-0.2,0.3c0,0.2,0,0.6,0,0.8V29.2z"/>
		<path class="st0" d="M85.2,28.5V33h-0.9V21.6h0.9v1.3c0.6-0.8,1.6-1.5,2.8-1.5c2.2,0,3.7,1.7,3.7,4.3c0,2.6-1.5,4.3-3.7,4.3
			C86.9,30,85.9,29.4,85.2,28.5 M90.8,25.7c0-2-1-3.5-2.9-3.5c-1.1,0-2.2,0.9-2.7,1.7v3.6c0.5,0.8,1.6,1.7,2.7,1.7
			C89.8,29.2,90.8,27.7,90.8,25.7"/>
		<rect x="92.9" y="18.5" class="st0" width="0.9" height="11.4"/>
		<path class="st0" d="M103.7,32.2c0.2,0.1,0.5,0.1,0.7,0.1c0.5,0,0.9-0.2,1.3-1l0.6-1.5l-3.5-8.3h1l3,7.2l2.9-7.2h1l-4.2,10.1
			c-0.4,1-1.1,1.5-2.1,1.5c-0.3,0-0.7-0.1-0.9-0.1L103.7,32.2z"/>
		<path class="st0" d="M101.1,29.8c-0.1-0.3-0.1-0.5-0.1-0.7c0-0.2,0-0.4,0-0.6c-0.3,0.4-0.7,0.8-1.3,1.1c-0.5,0.3-1.1,0.4-1.8,0.4
			c-0.9,0-1.5-0.2-2-0.6c-0.5-0.4-0.7-1-0.7-1.8c0-0.7,0.3-1.3,1-1.8c0.7-0.5,1.6-0.7,2.7-0.7h2.1v-1c0-0.6-0.2-1.1-0.6-1.4
			c-0.4-0.3-1-0.5-1.7-0.5c-0.7,0-1.2,0.2-1.6,0.5c-0.4,0.3-0.6,0.7-0.6,1.2h-0.9l0,0c0-0.6,0.3-1.2,0.8-1.6
			c0.6-0.5,1.4-0.7,2.3-0.7c1,0,1.7,0.2,2.3,0.7c0.6,0.5,0.9,1.1,0.9,2v4.1c0,0.3,0,0.6,0,0.8c0,0.3,0.1,0.6,0.2,0.8H101.1z
			 M98,29.2c0.7,0,1.3-0.2,1.8-0.5c0.5-0.3,0.9-0.8,1.1-1.3v-1.6h-2.1c-0.8,0-1.4,0.2-2,0.5c-0.5,0.4-0.8,0.8-0.8,1.3
			c0,0.5,0.2,0.8,0.5,1.1C97,29,97.4,29.2,98,29.2"/>
		<path class="st0" d="M35.2,11.9l-0.4-1.1h-2.5l-0.4,1.1h-1.1l2.2-5.6h1.2l2.2,5.6H35.2z M33.5,7.3l-1,2.6h2L33.5,7.3z"/>
		<polygon class="st0" points="40.9,11.9 38.1,7.9 38.1,11.9 37.1,11.9 37.1,6.3 38.1,6.3 40.9,10.2 40.9,6.3 41.9,6.3 41.9,11.9 		
			"/>
		<path class="st0" d="M43.2,11.9V6.3h2c1.7,0,2.9,1.2,2.9,2.8c0,1.6-1.2,2.8-2.9,2.8H43.2z M47.2,9.1c0-1.1-0.7-1.9-1.9-1.9h-1.1
			V11h1.1C46.5,11,47.2,10.2,47.2,9.1"/>
		<path class="st0" d="M52.4,11.9l-1.2-2.1h-1v2.1h-1V6.3h2.4c1.1,0,1.8,0.7,1.8,1.7c0,1-0.6,1.5-1.3,1.6l1.4,2.2H52.4z M52.5,8.1
			c0-0.5-0.4-0.9-0.9-0.9h-1.3V9h1.3C52.1,9,52.5,8.6,52.5,8.1"/>
		<path class="st0" d="M54.4,9.1c0-1.7,1.2-2.9,2.8-2.9c1.6,0,2.8,1.2,2.8,2.9c0,1.7-1.2,2.9-2.8,2.9C55.6,12,54.4,10.8,54.4,9.1
			 M59.1,9.1c0-1.1-0.7-2-1.8-2c-1.1,0-1.8,0.9-1.8,2c0,1.1,0.7,2,1.8,2C58.4,11.1,59.1,10.3,59.1,9.1"/>
		<rect x="61.2" y="6.3" class="st0" width="1" height="5.6"/>
		<path class="st0" d="M63.5,11.9V6.3h2c1.7,0,2.9,1.2,2.9,2.8c0,1.6-1.2,2.8-2.9,2.8H63.5z M67.5,9.1c0-1.1-0.7-1.9-1.9-1.9h-1.1
			V11h1.1C66.8,11,67.5,10.2,67.5,9.1"/>
		<path class="st0" d="M75.8,11.9l-0.4-1.1h-2.5l-0.4,1.1h-1.1l2.2-5.6h1.2l2.2,5.6H75.8z M74.1,7.3l-1,2.6h2L74.1,7.3z"/>
		<path class="st0" d="M77.7,11.9V6.3h2.4c1.2,0,1.8,0.8,1.8,1.7c0,0.9-0.6,1.7-1.8,1.7h-1.5v2.1H77.7z M80.9,8.1
			c0-0.5-0.4-0.9-0.9-0.9h-1.3V9H80C80.5,9,80.9,8.6,80.9,8.1"/>
		<path class="st0" d="M82.9,11.9V6.3h2.4c1.2,0,1.8,0.8,1.8,1.7c0,0.9-0.6,1.7-1.8,1.7h-1.5v2.1H82.9z M86.2,8.1
			c0-0.5-0.4-0.9-0.9-0.9h-1.3V9h1.3C85.8,9,86.2,8.6,86.2,8.1"/>
		<path class="st0" d="M90.3,9.1c0-1.7,1.2-2.9,2.8-2.9c1.6,0,2.8,1.2,2.8,2.9c0,1.7-1.2,2.9-2.8,2.9C91.4,12,90.3,10.8,90.3,9.1
			 M94.9,9.1c0-1.1-0.7-2-1.8-2c-1.1,0-1.8,0.9-1.8,2c0,1.1,0.7,2,1.8,2C94.2,11.1,94.9,10.3,94.9,9.1"/>
		<polygon class="st0" points="100.9,11.9 98,7.9 98,11.9 97,11.9 97,6.3 98,6.3 100.8,10.2 100.8,6.3 101.8,6.3 101.8,11.9 		"/>
		<g>
			<defs>
				<path id="SVGID_1_" d="M9.8,16.2l9,9.1l2.8-2.9l-11-6.1c-0.2-0.1-0.4-0.2-0.6-0.2C9.9,16.1,9.9,16.1,9.8,16.2"/>
			</defs>
			<clipPath id="SVGID_2_">
				<use xlink:href="#SVGID_1_"  style="overflow:visible;"/>
			</clipPath>
			
				<linearGradient id="SVGID_3_" gradientUnits="userSpaceOnUse" x1="-425.2346" y1="833.5027" x2="-424.0059" y2="833.5027" gradientTransform="matrix(-2.5912 -11.2597 -11.2597 2.5912 8299.7314 -6923.228)">
				<stop  offset="0" style="stop-color:#D7E69D"/>
				<stop  offset="0.1024" style="stop-color:#D1E49E"/>
				<stop  offset="0.2432" style="stop-color:#BFDFA0"/>
				<stop  offset="0.4064" style="stop-color:#A2D6A3"/>
				<stop  offset="0.5864" style="stop-color:#79C9A8"/>
				<stop  offset="0.7801" style="stop-color:#45B9AE"/>
				<stop  offset="0.9826" style="stop-color:#07A6B5"/>
				<stop  offset="1" style="stop-color:#01A4B6"/>
			</linearGradient>
			<polygon class="st1" points="10.4,27.9 7.8,16.6 21,13.5 23.6,24.8 			"/>
		</g>
		<g>
			<defs>
				<path id="SVGID_4_" d="M18.8,25.2l2.8,2.9l3.8-2.1c0.8-0.4,0.8-1.1,0-1.5l-3.8-2.1L18.8,25.2z"/>
			</defs>
			<clipPath id="SVGID_5_">
				<use xlink:href="#SVGID_4_"  style="overflow:visible;"/>
			</clipPath>
			
				<linearGradient id="SVGID_6_" gradientUnits="userSpaceOnUse" x1="-421.1152" y1="781.3242" x2="-419.8865" y2="781.3242" gradientTransform="matrix(6.6279 11.3196 11.3196 -6.6279 -6036.6763 9960.3662)">
				<stop  offset="0" style="stop-color:#ED277B"/>
				<stop  offset="0.2149" style="stop-color:#F25C79"/>
				<stop  offset="0.4863" style="stop-color:#F79977"/>
				<stop  offset="0.7173" style="stop-color:#FBC675"/>
				<stop  offset="0.8957" style="stop-color:#FDE174"/>
				<stop  offset="1" style="stop-color:#FEEB74"/>
			</linearGradient>
			<polygon class="st2" points="24.3,19.2 28.6,26.7 20.7,31.3 16.3,23.9 			"/>
		</g>
		<g>
			<defs>
				<path id="SVGID_7_" d="M9.2,17.1l0,16.3c0,0.5,0.2,0.8,0.5,1l9-9.1l-9-9.1C9.5,16.3,9.2,16.6,9.2,17.1"/>
			</defs>
			<clipPath id="SVGID_8_">
				<use xlink:href="#SVGID_7_"  style="overflow:visible;"/>
			</clipPath>
			
				<linearGradient id="SVGID_9_" gradientUnits="userSpaceOnUse" x1="-423.0136" y1="825.9686" x2="-421.786" y2="825.9686" gradientTransform="matrix(-4.0079 -15.4638 -15.4638 4.0079 11092.3604 -9822.2646)">
				<stop  offset="0" style="stop-color:#89CFBD"/>
				<stop  offset="0.4362" style="stop-color:#4A90AE"/>
				<stop  offset="0.8134" style="stop-color:#1A60A3"/>
				<stop  offset="1" style="stop-color:#084D9F"/>
			</linearGradient>
			<polygon class="st3" points="9.8,36.7 4.9,17.3 18.2,13.8 23.2,33.2 			"/>
		</g>
		<g>
			<defs>
				<path id="SVGID_10_" d="M9.8,34.4c0.2,0.1,0.5,0,0.8-0.1l11-6.1l-2.8-2.9L9.8,34.4z"/>
			</defs>
			<clipPath id="SVGID_11_">
				<use xlink:href="#SVGID_10_"  style="overflow:visible;"/>
			</clipPath>
			
				<linearGradient id="SVGID_12_" gradientUnits="userSpaceOnUse" x1="-396.9892" y1="813.2316" x2="-395.7726" y2="813.2316" gradientTransform="matrix(-13.8891 1.9026 1.9026 13.8891 -7037.1025 -10511.0547)">
				<stop  offset="0" style="stop-color:#F04A2B"/>
				<stop  offset="5.061269e-03" style="stop-color:#EF4A2C"/>
				<stop  offset="0.4774" style="stop-color:#AF4E6B"/>
				<stop  offset="0.8218" style="stop-color:#875092"/>
				<stop  offset="1" style="stop-color:#7851A1"/>
			</linearGradient>
			<polygon class="st4" points="22.9,34.3 10,36 8.5,25.4 21.4,23.6 			"/>
		</g>
	</g>
</g>
</svg>
