<?xml version="1.0" encoding="utf-8"?>
<!-- Generator: Adobe Illustrator 18.1.1, SVG Export Plug-In . SVG Version: 6.00 Build 0)  -->
<svg version="1.1" id="Layer_1" xmlns="http://www.w3.org/2000/svg" xmlns:xlink="http://www.w3.org/1999/xlink" x="0px" y="0px"
	 width="86px" height="52px" viewBox="-76 -1 86 52" enable-background="new -76 -1 86 52" xml:space="preserve">
<g>
	<path fill="#F5BC18" d="M-42.9,20.4h-5.7V41H-57V20.4h-4v-7.2h4V8.5c0-3.3,1.7-8.5,8.5-8.5h6.2v7.1h-4.6c-0.7,0-1.9,0.4-1.9,2v4.3
		h6.5L-42.9,20.4z"/>
	<path fill="#F5BC18" d="M-4.6,26v1.1c0,10.7-7.8,22.8-21.9,22.8c-4.3,0-8.5-1.3-11.9-3.6c0.6,0,1.3,0.2,1.8,0.2
		c3.6,0,7-1.3,9.5-3.4c-3.4,0-6.3-2.4-7.2-5.6c0.5,0,0.9,0.2,1.5,0.2c0.7,0,1.5-0.2,2-0.4c-3.6-0.8-6.1-3.9-6.1-7.9v-0.2
		c1.1,0.6,2.2,0.9,3.4,0.9c-2-1.5-3.4-3.9-3.4-6.7c0-1.5,0.4-2.8,1.1-4.1c3.7,4.9,9.5,8,15.8,8.4c-0.2-0.6-0.2-1.1-0.2-1.9
		c0-4.5,3.4-8,7.8-8c2.2,0,4.1,0.9,5.6,2.6C-5,20-3.4,19.5-2,18.5c-0.5,1.9-1.8,3.4-3.4,4.5c1.6-0.2,3-0.6,4.5-1.3
		C-1.7,23.4-3.2,24.9-4.6,26"/>
</g>
</svg>
