<?xml version="1.0" encoding="utf-8"?>
<!-- Generator: Adobe Illustrator 18.1.1, SVG Export Plug-In . SVG Version: 6.00 Build 0)  -->
<svg version="1.1" id="Layer_1" xmlns="http://www.w3.org/2000/svg" xmlns:xlink="http://www.w3.org/1999/xlink" x="0px" y="0px"
	 width="86px" height="60px" viewBox="-102 -5 86 60" style="enable-background:new -102 -5 86 60;" xml:space="preserve">
<style type="text/css">
	.st0{fill:#1EB0E6;}
</style>
<path class="st0" d="M-47-5h-28c-2.7,0-5,2.2-5,5v50c0,2.8,2.2,5,5,5h28c2.8,0,5-2.2,5-5V0C-42-2.8-44.2-5-47-5z M-68-1h14
	c0.5,0,1,0.5,1,1s-0.5,1-1,1h-14c-0.5,0-1-0.5-1-1S-68.5-1-68-1z M-61,52c-1.7,0-3-1.3-3-3s1.3-3,3-3s3,1.3,3,3S-59.3,52-61,52z
	 M-45,44h-32V5h32V44z"/>
</svg>
