<?xml version="1.0" encoding="utf-8"?>
<!-- Generator: Adobe Illustrator 18.1.1, SVG Export Plug-In . SVG Version: 6.00 Build 0)  -->
<svg version="1.1" id="Layer_1" xmlns="http://www.w3.org/2000/svg" xmlns:xlink="http://www.w3.org/1999/xlink" x="0px" y="0px"
	 width="86px" height="37px" viewBox="-76 6.5 86 37" enable-background="new -76 6.5 86 37" xml:space="preserve">
<polygon fill="#9B2454" points="-0.1,16 -0.1,23.8 -8,23.8 -8,25.9 -0.1,25.9 -0.1,33.9 2.1,33.9 2.1,25.9 10,25.9 10,23.8 
	2.1,23.8 2.1,16 "/>
<path fill="#231F20" d="M-67.6,12.1c-0.7-2.9-0.8-3.4-1.7-3.7L-70,8.2V7.5h8.9v0.7l-0.8,0.1c-1.6,0.4-1.5,2-1.1,4.1l4,19.8l3-15.7
	l-1.1-5.4c-0.4-1.9-0.5-2.5-1.6-2.8l-0.7-0.1V7.5h9.2v0.7l-1.1,0.3c-1.6,0.3-1.5,2.1-1.1,4.1l3.9,19.8l3.7-18.7
	c0.7-3.8,0.4-4.8-1.2-5.2l-1.1-0.3V7.5h6.4v0.7l-0.7,0.3c-1.1,0.4-1.2,1.3-2,4.6l-6.1,29.3h-1.3l-4.7-22.8l-4.3,22.8h-1.6
	L-67.6,12.1z"/>
<path fill="#231F20" d="M-32.5,42.4c-2.9,0-3.9-2-4.9-2c-0.5,0-1.2,0.1-1.7,1.9h-0.7V30.8h0.8c0.7,6.5,3.1,10.6,6.4,10.6
	c2.3,0,3.9-2.1,3.9-5.8c0-7.8-11.2-11.3-11.2-19.9c0-4.6,2.4-8.2,6.7-8.2c2.8,0,3.3,1.9,4.5,1.9c0.7,0,1.1-0.5,1.3-1.6h0.7v11.4
	h-0.8c-0.7-5.8-2.1-10.6-5.7-10.6c-2.5,0-2.9,2.5-2.9,4.2c0,7.6,11.2,10.1,11.2,20.5C-25.1,38.5-28,42.4-32.5,42.4"/>
<path fill="#231F20" d="M-10.8,34.3c0,5.4-2.7,8.2-6.9,8.2c-3.7,0-6-3-6-6.5c0-2.7,2-4,3.5-3.7c1.1,0.1,2.3,0.9,2,2.7
	c-0.1,2.5-2.9,2.4-2.9,4c-0.1,0.9,1.2,2.4,2.8,2.4c2.8,0,2.8-3.6,2.8-6.2V10.7c0-1.5-0.4-1.9-1.6-2.1l-1.2-0.3V7.6h9.9v0.7l-1.1,0.3
	c-1.1,0.3-1.3,0.7-1.3,2.1V34.3C-10.8,34.3-10.8,34.3-10.8,34.3z"/>
</svg>
