<?xml version="1.0" encoding="utf-8"?>
<!-- Generator: Adobe Illustrator 18.1.1, SVG Export Plug-In . SVG Version: 6.00 Build 0)  -->
<svg version="1.1" baseProfile="basic" id="Layer_1"
	 xmlns="http://www.w3.org/2000/svg" xmlns:xlink="http://www.w3.org/1999/xlink" x="0px" y="0px" width="930px" height="200px"
	 viewBox="159 297 930 200" xml:space="preserve">
<g id="Layer_2" display="none">
	<rect x="583" y="1141" display="inline" fill="#32FF00" width="1076" height="343"/>
</g>
<g id="Layer_1_1_">
	<g>
		<path fill="#231F20" d="M241.1,344.7H217v-1.8h1.3c1.6,0,2.5-0.8,2.5-2.7V302c0-1.9-0.9-2.7-2.5-2.7H217v-1.8h24.1v16.2h-1.6v-0.2
			c0-9.6-2.9-14-8.2-14h-4v19.6h1c3,0,4.4-2.9,4.4-9V310h1.6v20.4h-1.6v-0.1c0-6-1.3-9-4.4-9h-1v21.4h3.7c5.3,0,8.5-5.1,8.5-13.9
			v-0.2h1.6V344.7z"/>
		<path fill="#231F20" d="M215.5,344.7h-14.2v-1.8h1.2c1.6,0,2.6-0.8,2.6-2.7v-18.6h-10.2v18.5c0,2,1,2.7,2.6,2.7h1.2v1.8h-14.1
			v-1.8h1.2c1.6,0,2.6-0.8,2.6-2.7V302c0-1.9-1-2.7-2.6-2.7h-1.2v-1.8h14.1v1.8h-1.2c-1.6,0-2.6,0.8-2.6,2.7v17.2h10.3V302
			c0-1.9-1-2.7-2.6-2.7h-1.2v-1.8h14.1v1.8h-1.2c-1.6,0-2.6,0.8-2.6,2.7v38.2c0,2,1,2.7,2.6,2.7h1.2
			C215.5,342.9,215.5,344.7,215.5,344.7z"/>
		<path fill="#231F20" d="M183.8,313.8h-1.6v-0.2c0-7.6-2.9-14.1-6.2-14.1h-1.4v40.6c0,2,1,2.7,2.6,2.7h1.5v1.8h-14.6v-1.8h1.4
			c1.6,0,2.6-0.8,2.6-2.7v-40.6h-1.3c-3.4,0-6.2,6.1-6.2,14.1v0.2H159v-16.3h24.8V313.8z"/>
		<path fill="#231F20" d="M362,344.7h-23.4v-1.8h1.3c1.6,0,2.6-0.7,2.6-2.6v-38.4c0-1.9-1-2.6-2.6-2.6h-1.3v-1.8h14.1v1.8h-1.2
			c-1.6,0-2.6,0.7-2.6,2.6v40.7h3.5c6.3,0,8-7.3,8-14v-0.2h1.6V344.7L362,344.7z"/>
		<path fill="#231F20" d="M295.1,299.3h-0.5c-2.3,0-3.4,0.4-4.2,4.3l-8.6,41.4h-2.7l-5.4-27.1h-0.1l-5.3,27.1h-2.7l-8.4-42.5
			c-0.5-2.7-1.3-3.2-3.7-3.2h-0.2v-1.8H266v1.8h-0.2c-1.8,0-2.3,0.5-2.3,1.8c0,0.3,0.1,0.8,0.1,1.2L269,331h0.1l3.5-18.9l-1.8-9.5
			c-0.5-2.4-1-3.2-2.9-3.2h-0.3v-1.9h12.6v1.8H280c-2.2,0-2.8,0.8-2.8,2.4c0,0.4,0.1,0.9,0.2,1.5l5.4,27.5h0.1l5.1-27.6
			c0.1-0.4,0.1-1,0.1-1.3c0-1.7-0.6-2.5-3.1-2.5h-0.4v-1.8h10.7v1.8H295.1z"/>
		<path fill="#231F20" d="M303.5,331l-3.5-20.8h-0.1l-3.6,20.8H303.5z M337.7,344.7h-35.9v-1.8h0.3c2.4,0,3.2-0.7,3.2-2
			c0-0.4-0.1-0.9-0.2-1.4l-1.1-6.2h-8l-1.1,6.2c-0.1,0.6-0.2,1-0.2,1.4c0,1.5,0.6,2,3,2h0.2v1.8h-10.1v-1.8h0.5
			c2.1,0,3.2-0.5,3.8-3.3l8.2-42.6h3l8.4,42.5c0.5,2.6,1.8,3.4,2.9,3.4h0.9c1.6,0,2.6-0.7,2.6-2.6v-38.4c0-1.9-1-2.6-2.6-2.6h-1.2
			v-1.8h14.1v1.8h-1.3c-1.6,0-2.6,0.7-2.6,2.6v40.7h3.5c6.4,0,8-7.2,8-14v-0.2h1.6v16.3H337.7L337.7,344.7z"/>
		<path fill="#231F20" d="M529,313.8h-1.6v-0.2c0-7.6-2.9-14.1-6.2-14.1h-1.4v40.6c0,1.9,1,2.7,2.6,2.7h1.3v1.8h-14.3v-1.8h1.4
			c1.6,0,2.6-0.8,2.6-2.7v-40.5h-1.2c-3.4,0-6.2,6.1-6.2,14.1v0.2h-1.6v-16.4H529V313.8z"/>
		<path fill="#231F20" d="M502.2,344.6h-24.1v-1.8h1.3c1.6,0,2.5-0.8,2.5-2.7V302c0-1.9-0.9-2.7-2.5-2.7h-1.3v-1.8h24.1v16.2h-1.6
			v-0.2c0-9.6-2.9-14-8.2-14h-3.9v19.6h1c3,0,4.4-2.9,4.4-9V310h1.6v20.4h-1.6v-0.1c0-6-1.4-9-4.4-9h-1v21.3h3.7
			c5.3,0,8.5-5.1,8.5-13.9v-0.2h1.6v16.1L502.2,344.6L502.2,344.6z"/>
		<path fill="#231F20" d="M476.5,344.6h-24.1v-1.8h1.3c1.6,0,2.5-0.8,2.5-2.7V302c0-1.9-0.9-2.7-2.5-2.7h-1.3v-1.8h24.1v16.2h-1.6
			v-0.2c0-9.6-2.9-14-8.2-14h-3.9v19.6h1c3,0,4.4-2.9,4.4-9V310h1.6v20.4h-1.6v-0.1c0-6-1.4-9-4.4-9h-1v21.3h3.7
			c5.3,0,8.5-5.1,8.5-13.9v-0.2h1.6v16.1L476.5,344.6L476.5,344.6z"/>
		<path fill="#231F20" d="M422.3,313.8h-1.6v-0.2c0-7.6-2.9-14.1-6.3-14.1H413v40.6c0,1.9,1,2.7,2.6,2.7h1.2v1.8h-14.2v-1.8h1.4
			c1.6,0,2.6-0.8,2.6-2.7v-40.5h-1.2c-3.4,0-6.2,6.1-6.2,14.1v0.2h-1.6v-16.4h24.8L422.3,313.8L422.3,313.8L422.3,313.8z"/>
		<path fill="#231F20" d="M397.4,333.2c0,8.3-5.1,11.8-11,11.8c-4.3,0-6.2-1.4-8.3-2.8l-1.1,2.5h-1.2v-16.3h1.6v0.5
			c0,11.4,5.7,14,8.6,14c4.2,0,6.3-3.1,6.3-7.5c0-5.4-3.4-9.4-8.3-13.1c-4.4-3.4-8.5-7.5-8.5-14.4c0-7.1,4.4-10.8,9.6-10.8
			c4.4,0,6.4,1.8,7.5,2.8l1.2-2.3h1.2v16.3h-1.6v-0.5c0-8.8-2.7-14.1-7.9-14.1c-3.2,0-5.1,2.3-5.1,6.1c0,4.4,2.6,6.9,7.5,10.7
			C393.3,320.2,397.4,324.6,397.4,333.2"/>
		<path fill="#231F20" d="M442.6,309c0-7.4-2.9-9.5-6.9-9.5h-1.5v19.9h1.8C440.1,319.4,442.6,316.6,442.6,309 M452.1,338.2
			c0,4-1.5,6.8-5.4,6.8s-5.5-2.9-5.8-8.7l-0.4-8.8c-0.2-4.6-2-5.9-4.7-5.9h-1.7v18.6c0,1.9,0.8,2.7,2.4,2.7h1.5v1.8h-14.2v-1.8h1.4
			c1.6,0,2.6-0.8,2.6-2.7V302c0-1.9-1-2.7-2.6-2.7h-1.4v-1.8h12.9c7.8,0,12.7,4,12.7,11.4c0,7.8-5.4,10.7-10.2,11.7v0.1
			c3.9,0.4,7.5,3.3,7.7,7.8l0.5,10.3c0.1,2.1,0.3,2.7,1.4,2.7c1.2,0,1.5-0.9,1.5-4v-1.7h1.8L452.1,338.2L452.1,338.2z"/>
		<path fill="#231F20" d="M723,341.8c0,1.8-1.3,3.2-2.7,3.2s-2.7-1.5-2.7-3.2c0-1.8,1.3-3.2,2.7-3.2S723,340,723,341.8"/>
		<path fill="#231F20" d="M667.4,299.3h-1.3c-1.5,0-2.6,1.1-2.6,3.4v42.2h-2.3l-14.7-37.1h-0.1v31.8c0,2.3,1.2,3.4,2.6,3.4h1.3v1.8
			h-9.9V343h1.2c1.5,0,2.6-1.1,2.6-3.4v-37.4c0-1.6-0.6-2.9-2.3-2.9h-1.6v-1.8h9l12,30.4h0.1v-25.2c0-2.3-1.2-3.4-2.6-3.4h-1.2v-1.8
			h9.9L667.4,299.3L667.4,299.3z"/>
		<path fill="#231F20" d="M560.1,299.3h-1.3c-1.6,0-2.6,0.8-2.6,2.7v32.9c0,7.4-4.6,10.1-10.5,10.1c-4.2,0-8.5-3.5-8.5-10.1
			c0-3.6,2.2-5.1,4-5.1s3.2,1.3,3.2,3.5c0,2.8-1.7,4-3.8,4.4c0,2.4,1.9,5.3,5.1,5.3c3.1,0,4.1-1.7,4.1-6.8V302
			c0-1.9-0.9-2.7-2.5-2.7h-1.5v-1.8h14.4v1.8H560.1z"/>
		<path fill="#231F20" d="M680.6,331l-3.5-20.9H677l-3.6,20.9H680.6z M714.8,344.6h-36v-1.8h0.4c2.4,0,3.2-0.7,3.2-2
			c0-0.4-0.1-0.9-0.2-1.4l-1.1-6.2h-8l-1.1,6.2c-0.1,0.6-0.2,1-0.2,1.4c0,1.5,0.6,2,3,2h0.2v1.8h-10.1v-1.8h0.5
			c2.1,0,3.3-0.5,3.8-3.3l8.2-42.5h3l8.4,42.4c0.5,2.6,1.8,3.4,3,3.4h0.9c1.6,0,2.6-0.7,2.6-2.6v-38.3c0-1.9-1-2.6-2.6-2.6h-1.3
			v-1.8h14.2v1.8h-1.3c-1.6,0-2.6,0.7-2.6,2.6v40.7h3.5c6.3,0,8-7.2,8-14v-0.2h1.6L714.8,344.6L714.8,344.6z"/>
		<path fill="#231F20" d="M630.6,309c0-7.4-2.9-9.5-6.9-9.5h-1.5v19.9h1.8C628.1,319.4,630.6,316.6,630.6,309 M640.1,338.2
			c0,4-1.5,6.8-5.3,6.8c-3.9,0-5.5-2.9-5.8-8.7l-0.4-8.8c-0.2-4.6-2-5.9-4.6-5.9h-1.7v18.6c0,1.9,0.8,2.7,2.4,2.7h1.5v1.8H612v-1.8
			h1.4c1.6,0,2.6-0.8,2.6-2.7V302c0-1.9-1-2.7-2.5-2.7H611c-1.5,0-2.4,1.2-2.4,3.4v31.4c0,6.3-2.1,10.9-8.8,10.9
			c-7.2,0-11.4-4.4-11.4-10.9V302c0-2-0.9-2.7-2.5-2.7h-1.3v-1.8h14.2v1.8h-1.3c-1.6,0-2.5,0.8-2.5,2.7v32.5c0,5.3,2.1,8.1,5.7,8.1
			c3.6,0,5.8-2.3,5.8-8.1v-31.8c0-2.2-0.8-3.4-2.3-3.4h-1.5v-1.8H625c7.8,0,12.7,4,12.7,11.4c0,7.8-5.4,10.7-10.2,11.7v0.1
			c3.9,0.4,7.5,3.3,7.7,7.8l0.5,10.3c0.1,2.1,0.4,2.7,1.4,2.7c1.2,0,1.5-0.9,1.5-4v-1.7h1.8v2.4H640.1z"/>
		<path fill="#231F20" d="M577.2,332.2v-22.3c0-8.2-1.8-10.6-5.1-10.6s-5,2.3-5,10.7v22.1c0,7.9,1.5,10.8,5,10.8
			C575.5,342.9,577.2,339.8,577.2,332.2 M584.5,320.9c0,13.4-4.4,24.1-12.4,24.1c-7.8,0-12.2-10.6-12.2-24.1
			c0-13.4,4.2-23.8,12.2-23.8C580,297.1,584.5,307.5,584.5,320.9"/>
	</g>
	<g>
		<path fill="#231F20" d="M191,365.6h-9.4v-0.7h0.5c0.6,0,1-0.3,1-1.1v-14.9c0-0.8-0.4-1.1-1-1.1h-0.5v-0.7h9.4v6.3h-0.6v-0.1
			c0-3.7-1.1-5.4-3.2-5.4h-1.5v7.6h0.3c1.2,0,1.7-1.1,1.7-3.5v-0.1h0.6v8h-0.6l0,0c0-2.3-0.5-3.5-1.7-3.5h-0.4v8.3h1.4
			c2.1,0,3.3-2,3.3-5.4v-0.1h0.7V365.6z"/>
		<path fill="#231F20" d="M181,365.6h-5.5v-0.7h0.5c0.6,0,1-0.3,1-1.1v-7.2h-4v7.2c0,0.8,0.4,1.1,1,1.1h0.5v0.7H169v-0.7h0.5
			c0.6,0,1-0.3,1-1.1v-14.9c0-0.8-0.4-1.1-1-1.1H169v-0.7h5.5v0.7H174c-0.6,0-1,0.3-1,1.1v6.7h4v-6.7c0-0.8-0.4-1.1-1-1.1h-0.5v-0.7
			h5.5v0.7h-0.5c-0.6,0-1,0.3-1,1.1v14.9c0,0.8,0.4,1.1,1,1.1h0.5V365.6z"/>
		<path fill="#231F20" d="M168.7,353.5h-0.6v-0.1c0-3-1.1-5.5-2.4-5.5h-0.6v15.8c0,0.8,0.4,1.1,1,1.1h0.6v0.7H161v-0.7h0.5
			c0.6,0,1-0.3,1-1.1V348h-0.4c-1.3,0-2.4,2.4-2.4,5.5v0.1H159v-6.4h9.7V353.5z"/>
		<path fill="#231F20" d="M238.2,365.6H229v-0.7h0.5c0.6,0,1-0.3,1-1v-15c0-0.8-0.4-1-1-1H229v-0.7h5.5v0.7H234c-0.6,0-1,0.3-1,1
			v15.9h1.4c2.5,0,3.1-2.8,3.1-5.4v-0.1h0.6L238.2,365.6L238.2,365.6z"/>
		<path fill="#231F20" d="M212.1,347.9h-0.2c-0.9,0-1.3,0.2-1.7,1.7l-3.4,16.1h-1l-2.1-10.6l0,0l-2.1,10.6h-1l-3.3-16.6
			c-0.2-1.1-0.5-1.3-1.4-1.3h-0.1v-0.7h5v0.7h-0.1c-0.7,0-0.9,0.2-0.9,0.7c0,0.1,0,0.3,0,0.5l2.1,11.2l0,0l1.4-7.4l-0.7-3.7
			c-0.2-0.9-0.4-1.3-1.1-1.3h-0.1v-0.7h4.9v0.7h-0.1c-0.9,0-1.1,0.3-1.1,0.9c0,0.2,0,0.4,0.1,0.6l2.1,10.7l0,0l2-10.7
			c0-0.2,0-0.4,0-0.5c0-0.7-0.2-1-1.2-1H208v-0.7h4.2L212.1,347.9L212.1,347.9z"/>
		<path fill="#231F20" d="M215.4,360.3l-1.4-8.2l0,0l-1.4,8.1L215.4,360.3L215.4,360.3z M228.7,365.6h-14v-0.7h0.1
			c0.9,0,1.2-0.3,1.2-0.8c0-0.1,0-0.3-0.1-0.6l-0.4-2.4h-3.1l-0.4,2.4c0,0.2-0.1,0.4-0.1,0.6c0,0.6,0.2,0.8,1.2,0.8h0.1v0.7h-3.9
			v-0.7h0.2c0.8,0,1.3-0.2,1.5-1.3l3.1-16.6h1.2l3.3,16.5c0.2,1,0.7,1.3,1.1,1.3h0.4c0.6,0,1-0.3,1-1v-14.9c0-0.8-0.4-1-1-1h-0.5
			v-0.7h5.5v0.7h-0.5c-0.6,0-1,0.3-1,1v15.9h1.4c2.5,0,3.1-2.8,3.1-5.5v-0.1h0.6L228.7,365.6L228.7,365.6z"/>
		<path fill="#231F20" d="M303.3,353.5h-0.6v-0.1c0-3-1.1-5.5-2.4-5.5h-0.5v15.8c0,0.8,0.4,1.1,1,1.1h0.5v0.7h-5.6v-0.7h0.5
			c0.6,0,1-0.3,1-1.1V348h-0.5c-1.3,0-2.4,2.4-2.4,5.5v0.1h-0.6v-6.4h9.7L303.3,353.5L303.3,353.5z"/>
		<path fill="#231F20" d="M292.9,365.6h-9.4v-0.7h0.5c0.6,0,1-0.3,1-1.1v-14.9c0-0.8-0.4-1.1-1-1.1h-0.5v-0.7h9.4v6.3h-0.6v-0.1
			c0-3.7-1.1-5.4-3.2-5.4h-1.5v7.6h0.4c1.2,0,1.7-1.1,1.7-3.5v-0.1h0.6v8h-0.6l0,0c0-2.3-0.5-3.5-1.7-3.5h-0.4v8.3h1.4
			c2.1,0,3.3-2,3.3-5.4v-0.1h0.6L292.9,365.6L292.9,365.6z"/>
		<path fill="#231F20" d="M282.8,365.6h-9.4v-0.7h0.5c0.6,0,1-0.3,1-1.1v-14.9c0-0.8-0.4-1.1-1-1.1h-0.5v-0.7h9.4v6.3h-0.6v-0.1
			c0-3.7-1.1-5.4-3.2-5.4h-1.5v7.6h0.4c1.2,0,1.7-1.1,1.7-3.5v-0.1h0.6v8h-0.6l0,0c0-2.3-0.5-3.5-1.7-3.5h-0.4v8.3h1.4
			c2.1,0,3.3-2,3.3-5.4v-0.1h0.6L282.8,365.6L282.8,365.6z"/>
		<path fill="#231F20" d="M261.7,353.5h-0.6v-0.1c0-3-1.1-5.5-2.4-5.5h-0.5v15.8c0,0.8,0.4,1.1,1,1.1h0.5v0.7H254v-0.7h0.5
			c0.6,0,1-0.3,1-1.1V348H255c-1.3,0-2.4,2.4-2.4,5.5v0.1H252v-6.4h9.7V353.5z"/>
		<path fill="#231F20" d="M252,361.1c0,3.2-2,4.6-4.3,4.6c-1.7,0-2.4-0.5-3.2-1.1l-0.4,1h-0.5v-6.3h0.6v0.2c0,4.4,2.2,5.4,3.4,5.4
			c1.6,0,2.5-1.2,2.5-2.9c0-2.1-1.3-3.7-3.2-5.1c-1.7-1.3-3.3-2.9-3.3-5.6c0-2.8,1.7-4.2,3.7-4.2c1.7,0,2.5,0.7,2.9,1.1l0.5-0.9h0.3
			v6.3h-0.6v-0.2c0-3.4-1-5.5-3.1-5.5c-1.2,0-2,0.9-2,2.4c0,1.7,1,2.7,2.9,4.2C250.4,356.1,252,357.8,252,361.1"/>
		<path fill="#231F20" d="M269.6,351.7c0-2.9-1.1-3.7-2.7-3.7h-0.6v7.7h0.7C268.6,355.7,269.6,354.6,269.6,351.7 M273.3,363.1
			c0,1.5-0.6,2.6-2.1,2.6s-2.1-1.1-2.3-3.4l-0.2-3.4c-0.1-1.8-0.8-2.3-1.8-2.3h-0.7v7.2c0,0.8,0.3,1.1,0.9,1.1h0.6v0.7h-5.6v-0.7
			h0.5c0.6,0,1-0.3,1-1.1v-14.9c0-0.8-0.4-1.1-1-1.1h-0.5v-0.7h5c3,0,4.9,1.6,4.9,4.5c0,3-2.1,4.2-4,4.5l0,0c1.5,0.2,2.9,1.3,3,3
			l0.2,4c0,0.8,0.1,1,0.5,1c0.5,0,0.6-0.3,0.6-1.5v-0.7h0.7v1.2L273.3,363.1L273.3,363.1z"/>
		<path fill="#231F20" d="M379,364.4c0,0.7-0.5,1.3-1.1,1.3c-0.5,0-1.1-0.6-1.1-1.3s0.5-1.2,1.1-1.2S379,363.8,379,364.4"/>
		<path fill="#231F20" d="M357.3,347.9h-0.5c-0.6,0-1,0.4-1,1.3v16.4h-0.9l-5.7-14.5l0,0v12.4c0,0.9,0.5,1.3,1,1.3h0.5v0.7h-3.9
			v-0.7h0.5c0.6,0,1-0.4,1-1.3V349c0-0.6-0.3-1.1-0.9-1.1h-0.6v-0.7h3.5L355,359l0,0v-9.8c0-0.9-0.5-1.3-1-1.3h-0.5v-0.7h3.9v0.7
			L357.3,347.9L357.3,347.9z"/>
		<path fill="#231F20" d="M315.5,347.9H315c-0.6,0-1,0.3-1,1.1v12.8c0,2.9-1.8,3.9-4.1,3.9c-1.6,0-3.3-1.3-3.3-3.9
			c0-1.4,0.9-2,1.6-2s1.2,0.5,1.2,1.4c0,1.1-0.6,1.6-1.5,1.7c0,1,0.7,2.1,2,2.1c1.2,0,1.6-0.7,1.6-2.6v-13.5c0-0.8-0.4-1.1-1-1.1
			h-0.6v-0.7h5.6L315.5,347.9L315.5,347.9z"/>
		<path fill="#231F20" d="M362.5,360.3l-1.4-8.1l0,0l-1.4,8.1H362.5z M375.8,365.6h-14v-0.7h0.1c0.9,0,1.2-0.3,1.2-0.8
			c0-0.1,0-0.3-0.1-0.6l-0.4-2.4h-3.1l-0.4,2.4c0,0.2-0.1,0.4-0.1,0.6c0,0.6,0.2,0.8,1.2,0.8h0.1v0.7h-3.9v-0.7h0.2
			c0.8,0,1.3-0.2,1.5-1.3l3.2-16.6h1.2l3.3,16.5c0.2,1,0.7,1.3,1.2,1.3h0.4c0.6,0,1-0.3,1-1v-14.9c0-0.8-0.4-1-1-1h-0.5v-0.7h5.5
			v0.7h-0.5c-0.6,0-1,0.3-1,1v15.8h1.4c2.5,0,3.1-2.8,3.1-5.4v-0.1h0.6v6.4L375.8,365.6L375.8,365.6z"/>
		<path fill="#231F20" d="M343,351.7c0-2.9-1.1-3.7-2.7-3.7h-0.6v7.7h0.7C342,355.7,343,354.6,343,351.7 M346.7,363.1
			c0,1.5-0.6,2.6-2.1,2.6s-2.1-1.1-2.3-3.4l-0.2-3.4c-0.1-1.8-0.8-2.3-1.8-2.3h-0.7v7.2c0,0.8,0.3,1.1,0.9,1.1h0.6v0.7h-5.5v-0.7
			h0.5c0.6,0,1-0.3,1-1.1v-14.9c0-0.8-0.4-1.1-1-1.1h-1c-0.6,0-0.9,0.5-0.9,1.3v12.2c0,2.4-0.8,4.2-3.4,4.2c-2.8,0-4.4-1.7-4.4-4.2
			v-12.4c0-0.8-0.4-1.1-1-1.1h-0.5v-0.7h5.5v0.7H330c-0.6,0-1,0.3-1,1.1v12.7c0,2.1,0.8,3.2,2.2,3.2c1.4,0,2.3-0.9,2.3-3.2v-12.4
			c0-0.8-0.3-1.3-0.9-1.3H332v-0.7h8.7c3,0,4.9,1.6,4.9,4.5c0,3-2.1,4.2-4,4.5l0,0c1.5,0.2,2.9,1.3,3,3l0.2,4c0,0.8,0.1,1,0.5,1
			c0.5,0,0.6-0.3,0.6-1.5V362h0.7L346.7,363.1L346.7,363.1z"/>
		<path fill="#231F20" d="M322.1,360.7V352c0-3.2-0.7-4.1-2-4.1s-2,0.9-2,4.2v8.6c0,3.1,0.6,4.2,2,4.2S322.1,363.7,322.1,360.7
			 M325,356.3c0,5.2-1.7,9.4-4.8,9.4c-3.1,0-4.8-4.1-4.8-9.4c0-5.2,1.6-9.3,4.8-9.3C323.2,347,325,351.1,325,356.3"/>
	</g>
	<g>
		<path fill="#E5E5E5" d="M206,397c8.3,0,15-6.7,15-15s-6.7-15-15-15s-15,6.7-15,15S197.7,397,206,397"/>
		<g>
			<polyline fill="none" stroke="#888888" stroke-width="1.404" points="201,379.1 206.5,374.1 212.1,379.1 			"/>
			<line fill="none" stroke="#888888" stroke-width="1.404" x1="206.5" y1="374.2" x2="206.5" y2="390.5"/>
		</g>
	</g>
	<g>
		<path fill="#F1F3F3" d="M174,397c8.3,0,15-6.7,15-15s-6.7-15-15-15s-15,6.7-15,15S165.8,397,174,397"/>
		<g>
			<polyline fill="none" stroke="#BCBCBB" stroke-width="1.404" points="168.5,379.1 174,374.1 179.6,379.1 			"/>
			<line fill="none" stroke="#BCBCBB" stroke-width="1.404" x1="174" y1="374.2" x2="174" y2="390.5"/>
		</g>
	</g>
	<g>
		<path fill="#231F20" d="M777.4,327.4H762v-1.1h0.8c1,0,1.6-0.5,1.6-1.7v-24.4c0-1.2-0.6-1.7-1.6-1.7H762v-1.2h15.4v10.4h-1v-0.1
			c0-6.1-1.9-8.9-5.3-8.9h-2.5v12.5h0.6c1.9,0,2.8-1.8,2.8-5.7v-0.2h1v13h-1v-0.1c0-3.8-0.9-5.8-2.8-5.8h-0.6V326h2.4
			c3.4,0,5.4-3.3,5.4-8.9V317h1L777.4,327.4L777.4,327.4z"/>
		<path fill="#231F20" d="M761,327.4h-9v-1.1h0.8c1,0,1.7-0.5,1.7-1.7v-11.9h-6.6v11.8c0,1.2,0.6,1.7,1.7,1.7h0.8v1.1h-9v-1.1h0.8
			c1,0,1.7-0.5,1.7-1.7v-24.3c0-1.2-0.6-1.7-1.7-1.7h-0.8v-1.2h9v1.1h-0.8c-1,0-1.7,0.5-1.7,1.7v11h6.6v-11c0-1.2-0.6-1.7-1.7-1.7
			H752v-1.1h9v1.1h-0.8c-1,0-1.7,0.5-1.7,1.7v24.4c0,1.2,0.6,1.7,1.7,1.7h0.8V327.4z"/>
		<path fill="#231F20" d="M740.8,307.7h-1v-0.1c0-4.8-1.8-9-4-9h-0.9v25.9c0,1.2,0.6,1.7,1.7,1.7h0.9v1.1h-9.3v-1.1h0.9
			c1,0,1.6-0.5,1.6-1.7v-25.9H730c-2.1,0-4,3.9-4,9v0.1h-1v-10.4h15.8V307.7z"/>
		<path fill="#231F20" d="M854.5,327.4h-14.9v-1.1h0.8c1,0,1.7-0.5,1.7-1.7v-24.5c0-1.2-0.6-1.7-1.7-1.7h-0.8v-1.1h9v1.1h-0.8
			c-1,0-1.7,0.4-1.7,1.7v26h2.2c4,0,5.1-4.6,5.1-8.9v-0.1h1v10.3L854.5,327.4L854.5,327.4z"/>
		<path fill="#231F20" d="M811.9,298.4h-0.3c-1.4,0-2.2,0.3-2.7,2.7l-5.5,26.5h-1.7l-3.4-17.3l0,0l-3.5,17.3h-1.7l-5.4-27.1
			c-0.3-1.7-0.8-2.1-2.4-2.1h-0.1v-1.1h8.1v1.1h-0.2c-1.2,0-1.5,0.3-1.5,1.1c0,0.2,0,0.5,0.1,0.7l3.4,18.4h0.1l2.2-12.1l-1.2-6.1
			c-0.3-1.5-0.6-2.1-1.8-2.1h-0.2v-1h8v1.1h-0.1c-1.4,0-1.8,0.5-1.8,1.5c0,0.3,0,0.6,0.1,0.9l3.4,17.5h0.1l3.2-17.6
			c0-0.3,0.1-0.6,0.1-0.8c0-1.1-0.4-1.6-2-1.6H805v-1h6.8v1.1H811.9L811.9,298.4z"/>
		<path fill="#231F20" d="M817.2,318.7l-2.2-13.3h-0.1l-2.3,13.3H817.2z M839.1,327.4h-22.9v-1.1h0.2c1.6,0,2-0.4,2-1.3
			c0-0.2-0.1-0.6-0.1-0.9l-0.7-4h-5.1l-0.7,4c-0.1,0.4-0.1,0.6-0.1,0.9c0,0.9,0.4,1.3,1.9,1.3h0.2v1.1h-6.4v-1.1h0.3
			c1.3,0,2.1-0.3,2.4-2.1l5.1-27.2h1.9l5.4,27.1c0.3,1.6,1.2,2.2,1.9,2.2h0.6c1,0,1.7-0.5,1.7-1.7v-24.5c0-1.2-0.6-1.7-1.7-1.7h-0.8
			v-1.1h9v1.1h-0.8c-1,0-1.7,0.4-1.7,1.7v26h2.2c4.1,0,5.1-4.6,5.1-8.9V317h1L839.1,327.4L839.1,327.4z"/>
		<path fill="#231F20" d="M961.2,307.7h-1v-0.1c0-4.8-1.8-9-4-9h-0.9v25.9c0,1.2,0.6,1.7,1.7,1.7h0.8v1.1h-9.1v-1.1h0.9
			c1,0,1.7-0.5,1.7-1.7v-25.9h-0.8c-2.2,0-4,3.9-4,9v0.1h-1v-10.4h15.8v10.4H961.2z"/>
		<path fill="#231F20" d="M944,327.4h-15.4v-1.1h0.8c1,0,1.6-0.5,1.6-1.7v-24.4c0-1.2-0.6-1.7-1.6-1.7h-0.8v-1.2H944v10.4h-1v-0.1
			c0-6.1-1.9-8.9-5.3-8.9h-2.5v12.5h0.6c1.9,0,2.8-1.9,2.8-5.7v-0.2h1v13h-1v-0.1c0-3.8-0.9-5.8-2.8-5.8h-0.6V326h2.4
			c3.4,0,5.4-3.3,5.4-8.9V317h1L944,327.4L944,327.4z"/>
		<path fill="#231F20" d="M927.7,327.4h-15.4v-1.1h0.8c1,0,1.6-0.5,1.6-1.7v-24.4c0-1.2-0.6-1.7-1.6-1.7h-0.8v-1.2h15.4v10.4h-1
			v-0.1c0-6.1-1.9-8.9-5.3-8.9h-2.5v12.5h0.6c1.9,0,2.8-1.9,2.8-5.7v-0.2h1v13h-1v-0.1c0-3.8-0.9-5.8-2.8-5.8h-0.6V326h2.4
			c3.4,0,5.4-3.3,5.4-8.9V317h1L927.7,327.4L927.7,327.4z"/>
		<path fill="#231F20" d="M893,307.7h-1v-0.1c0-4.8-1.8-9-4-9h-0.9v25.9c0,1.2,0.6,1.7,1.6,1.7h0.8v1.1h-9.1v-1.1h0.9
			c1,0,1.7-0.5,1.7-1.7v-25.9h-0.8c-2.2,0-4,3.9-4,9v0.1h-1v-10.4H893V307.7z"/>
		<path fill="#231F20" d="M877.2,320.1c0,5.3-3.2,7.5-7,7.5c-2.7,0-4-0.9-5.3-1.8l-0.7,1.6h-0.8v-10.3h1v0.3c0,7.3,3.7,8.9,5.5,8.9
			c2.7,0,4-2,4-4.8c0-3.5-2.2-6-5.3-8.3c-2.8-2.2-5.4-4.8-5.4-9.2c0-4.5,2.8-6.9,6.1-6.9c2.8,0,4.1,1.1,4.8,1.8l0.8-1.5h0.7v10.4h-1
			v-0.3c0-5.6-1.7-9-5-9c-2,0-3.2,1.5-3.2,3.9c0,2.8,1.7,4.4,4.8,6.8C874.5,311.8,877.2,314.6,877.2,320.1"/>
		<path fill="#231F20" d="M906,304.7c0-4.7-1.9-6.1-4.4-6.1h-1v12.7h1.1C904.4,311.3,906,309.5,906,304.7 M912.1,323.3
			c0,2.5-1,4.3-3.4,4.3c-2.5,0-3.5-1.8-3.7-5.6l-0.3-5.6c-0.1-3-1.3-3.8-3-3.8h-1.1v11.9c0,1.2,0.5,1.7,1.5,1.7h1v1.1H894v-1.1h0.9
			c1,0,1.7-0.5,1.7-1.7v-24.3c0-1.2-0.6-1.7-1.7-1.7H894v-1.2h8.2c5,0,8.1,2.6,8.1,7.3c0,5-3.4,6.8-6.5,7.4v0.1
			c2.5,0.3,4.8,2.1,4.9,5l0.3,6.6c0.1,1.3,0.2,1.7,0.9,1.7s0.9-0.6,0.9-2.5v-1.1h1.2L912.1,323.3L912.1,323.3z"/>
		<path fill="#231F20" d="M1085,325.6c0,1.1-0.8,2.1-1.7,2.1c-0.9,0-1.7-0.9-1.7-2.1c0-1.1,0.8-2,1.7-2
			C1084.2,323.5,1085,324.4,1085,325.6"/>
		<path fill="#231F20" d="M1049.5,298.4h-0.8c-0.9,0-1.7,0.7-1.7,2.2v26.9h-1.5l-9.4-23.7h-0.1v20.3c0,1.5,0.7,2.2,1.7,2.2h0.8v1.1
			h-6.3v-1.1h0.8c0.9,0,1.7-0.7,1.7-2.2v-23.8c0-1.1-0.4-1.9-1.5-1.9h-1v-1.1h5.7l7.6,19.4h0.1v-16.1c0-1.5-0.7-2.2-1.7-2.2h-0.8
			v-1.1h6.3v1.1L1049.5,298.4L1049.5,298.4z"/>
		<path fill="#231F20" d="M981,298.4h-0.8c-1,0-1.7,0.5-1.7,1.7v21c0,4.7-3,6.5-6.7,6.5c-2.7,0-5.4-2.2-5.4-6.5
			c0-2.3,1.4-3.3,2.6-3.3c1.2,0,2,0.8,2,2.3c0,1.8-1.1,2.6-2.4,2.8c0,1.6,1.2,3.4,3.2,3.4s2.6-1.1,2.6-4.3v-21.8
			c0-1.2-0.6-1.7-1.6-1.7h-0.9v-1.2h9.2L981,298.4L981,298.4z"/>
		<path fill="#231F20" d="M1057.9,318.7l-2.3-13.3h-0.1l-2.2,13.3H1057.9z M1079.8,327.4h-23v-1.1h0.2c1.6,0,2-0.4,2-1.3
			c0-0.2-0.1-0.6-0.1-0.9l-0.7-4h-5.1l-0.7,4c-0.1,0.4-0.1,0.6-0.1,0.9c0,0.9,0.4,1.3,1.9,1.3h0.2v1.1h-6.4v-1.1h0.3
			c1.3,0,2.1-0.3,2.4-2.1l5.2-27.2h1.9l5.4,27.1c0.3,1.6,1.2,2.2,1.9,2.2h0.6c1,0,1.6-0.5,1.6-1.7v-24.5c0-1.2-0.6-1.7-1.6-1.7h-0.8
			v-1.1h9.1v1.1h-0.9c-1,0-1.7,0.5-1.7,1.7v26h2.2c4.1,0,5.1-4.6,5.1-8.9v-0.1h1L1079.8,327.4L1079.8,327.4z"/>
		<path fill="#231F20" d="M1026,304.7c0-4.7-1.9-6.1-4.4-6.1h-1v12.7h1.1C1024.4,311.3,1026,309.5,1026,304.7 M1032.1,323.3
			c0,2.5-1,4.3-3.4,4.3c-2.5,0-3.5-1.8-3.7-5.6l-0.3-5.6c-0.1-3-1.3-3.8-3-3.8h-1.1v11.9c0,1.2,0.5,1.7,1.5,1.7h0.9v1.1h-9v-1.1h0.9
			c1,0,1.6-0.5,1.6-1.7v-24.3c0-1.2-0.6-1.7-1.6-1.7h-1.6c-0.9,0-1.5,0.8-1.5,2.2v20.1c0,4-1.3,7-5.6,7c-4.6,0-7.3-2.8-7.3-7v-20.6
			c0-1.2-0.6-1.7-1.6-1.7h-0.8v-1.2h9.1v1.1h-0.8c-1,0-1.6,0.5-1.6,1.7v20.8c0,3.4,1.3,5.2,3.6,5.2s3.7-1.5,3.7-5.2v-20.3
			c0-1.4-0.5-2.2-1.5-2.2h-0.9v-1.1h14.2c5,0,8.1,2.6,8.1,7.3c0,5-3.5,6.8-6.5,7.4v0.1c2.5,0.3,4.8,2.1,4.9,5l0.3,6.6
			c0.1,1.3,0.2,1.7,0.9,1.7c0.8,0,0.9-0.6,0.9-2.5v-1.1h1.2L1032.1,323.3L1032.1,323.3z"/>
		<path fill="#231F20" d="M991.9,319.4v-14.2c0-5.2-1.2-6.8-3.3-6.8s-3.2,1.5-3.2,6.8v14.1c0,5,1,6.9,3.2,6.9
			C990.9,326.3,991.9,324.3,991.9,319.4 M996.6,312.3c0,8.6-2.8,15.4-7.9,15.4c-5,0-7.8-6.8-7.8-15.4s2.7-15.2,7.8-15.2
			C993.7,297.1,996.6,303.7,996.6,312.3"/>
	</g>
	<polygon points="163,414 175,422 175,406 	"/>
	<g>
		<g>
			<polyline fill="none" stroke="#FFFFFF" stroke-linecap="round" stroke-linejoin="round" stroke-miterlimit="10" points="200,413 
				206,419 212,413 			"/>
		</g>
	</g>
	<polyline fill="none" stroke="#FFFFFF" stroke-width="2" points="240,408 256.5,425 273,408 	"/>
	<g>
		<g>
			<g>
				<polyline fill="none" stroke="#FFFFFF" stroke-linecap="round" stroke-linejoin="round" stroke-miterlimit="10" points="
					240,380 244,384 248,380 				"/>
			</g>
		</g>
		<g>
			<g>
				<polyline fill="none" stroke="#FFFFFF" stroke-linecap="round" stroke-linejoin="round" stroke-miterlimit="10" points="
					248,388 244,384 240,388 				"/>
			</g>
		</g>
	</g>
	<polygon points="163,436 163,452 175,444 	"/>
	<g>
		<g>
			<polyline fill="none" stroke="#FFFFFF" stroke-linecap="round" stroke-linejoin="round" stroke-miterlimit="10" points="203,452 
				209,446 203,440 			"/>
		</g>
	</g>
	<g>
		<g>
			<polyline fill="none" stroke="#FFFFFF" stroke-linecap="round" stroke-linejoin="round" stroke-miterlimit="10" points="200,478 
				206,472 212,478 			"/>
		</g>
	</g>
	<g>
		<g>
			
				<polyline fill="none" stroke="#000000" stroke-width="2" stroke-linecap="round" stroke-linejoin="round" stroke-miterlimit="10" points="
				1068,483.5 1076,491.5 1084,483.5 			"/>
		</g>
	</g>
	<g>
		<g>
			<polygon points="321,393 327,387 321,381 			"/>
		</g>
	</g>
	<g>
		<g>
			<polygon points="307,381 301,387 307,393 			"/>
		</g>
	</g>
</g>
<g>
	<g>
		
			<polyline fill="none" stroke="#FFFFFF" stroke-width="2" stroke-linecap="round" stroke-linejoin="round" stroke-miterlimit="10" points="
			1028,483.5 1036,491.5 1044,483.5 		"/>
	</g>
</g>
</svg>
